<svg xmlns="http://www.w3.org/2000/svg" xmlns:xlink="http://www.w3.org/1999/xlink" fill="none" version="1.1" width="54" height="53" viewBox="0 0 54 53"><g><g><rect x="0" y="0" width="54" height="53" rx="10" fill="#FFFFFF" fill-opacity="1"/><rect x="0.5" y="0.5" width="53" height="52" rx="9.5" fill-opacity="0" stroke-opacity="1" stroke="#D4E1EB" fill="none" stroke-width="1"/></g><g><g><g><path d="M47.5633890625,29.921924682922363C47.5633890625,28.478644682922365,47.435889062499996,27.097564682922364,47.1992890625,25.769604682922363C47.1992890625,25.769604682922363,28.8837890625,25.769604682922363,28.8837890625,25.769604682922363C28.8837890625,25.769604682922363,28.8837890625,33.37798468292236,28.8837890625,33.37798468292236C28.8837890625,33.37798468292236,39.4319890625,33.380284682922365,39.4319890625,33.380284682922365C39.0040890625,35.91190468292236,37.627419062499996,38.06980468292237,35.5176890625,39.508504682922364C35.5176890625,39.508504682922364,35.5176890625,44.44490468292236,35.5176890625,44.44490468292236C35.5176890625,44.44490468292236,41.7964890625,44.44490468292236,41.7964890625,44.44490468292236C45.4628890625,41.007204682922364,47.5633890625,35.925704682922365,47.5633890625,29.921924682922363C47.5633890625,29.921924682922363,47.5633890625,29.921924682922363,47.5633890625,29.921924682922363Z" fill="#4285F4" fill-opacity="1"/></g><g><path d="M35.51984375,39.5085434375C33.77194375,40.7028634375,31.52124375,41.4015434375,28.88824375,41.4015434375C23.80184375,41.4015434375,19.48696375,37.9293534375,17.94172375,33.2490234375C17.94172375,33.2490234375,11.46484375,33.2490234375,11.46484375,33.2490234375C11.46484375,33.2490234375,11.46484375,38.3397334375,11.46484375,38.3397334375C14.67370375,44.7906234375,21.26890375,49.2174234375,28.88824375,49.2174234375C34.154343749999995,49.2174234375,38.578443750000005,47.4628234375,41.79864375,44.4426234375C41.79864375,44.4426234375,35.51984375,39.5085434375,35.51984375,39.5085434375C35.51984375,39.5085434375,35.51984375,39.5085434375,35.51984375,39.5085434375Z" fill="#34A853" fill-opacity="1"/></g><g><path d="M17.3318015625,29.602433426208496C17.3318015625,28.288323426208496,17.548001562499998,27.017823426208494,17.9417215625,25.823583426208497C17.9417215625,25.823583426208497,17.9417215625,20.732863426208496,17.9417215625,20.732863426208496C17.9417215625,20.732863426208496,11.4648315625,20.732863426208496,11.4648315625,20.732863426208496C10.1380565625,23.400413426208495,9.3916015625,26.411453426208496,9.3916015625,29.602433426208496C9.3916015625,32.793363426208494,10.1403345625,35.804363426208496,11.4648315625,38.47206342620849C11.4648315625,38.47206342620849,17.9417215625,33.381363426208495,17.9417215625,33.381363426208495C17.548001562499998,32.187063426208496,17.3318015625,30.916563426208498,17.3318015625,29.602433426208496C17.3318015625,29.602433426208496,17.3318015625,29.602433426208496,17.3318015625,29.602433426208496Z" fill="#FABB05" fill-opacity="1"/></g><g><path d="M28.88824375,17.8012615625C31.76244375,17.8012615625,34.33644375,18.8041915625,36.368643750000004,20.7639515625C36.368643750000004,20.7639515625,41.933043749999996,15.1314115625,41.933043749999996,15.1314115625C38.55344375,11.9427815625,34.14754375,9.9853515625,28.88824375,9.9853515625C21.27118375,9.9853515625,14.67370375,14.4120515625,11.46484375,20.8630515625C11.46484375,20.8630515625,17.94172375,25.953751562500003,17.94172375,25.953751562500003C19.48696375,21.2734515625,23.80184375,17.8012615625,28.88824375,17.8012615625C28.88824375,17.8012615625,28.88824375,17.8012615625,28.88824375,17.8012615625Z" fill="#E94235" fill-opacity="1"/></g></g></g></g></svg>