<svg width="35" height="35" viewBox="0 0 35 35" fill="none" xmlns="http://www.w3.org/2000/svg">
<path d="M17.6152 2.7728C17.1163 2.76887 16.6183 2.8908 16.1776 3.14023C13.3482 4.73503 10.2355 6.65109 6.99604 8.51712C6.9939 8.51854 6.99176 8.51996 6.98963 8.52139C5.39657 9.45463 4.10553 10.9204 3.88355 12.687V12.6892C3.35808 16.9268 3.58952 21.1734 4.57569 25.404C4.57775 25.4112 4.57989 25.4183 4.5821 25.4254C4.87645 26.587 5.58601 27.6479 6.46625 28.5421C7.3465 29.4364 8.39893 30.1645 9.56165 30.4754C9.56875 30.4776 9.57587 30.4798 9.58301 30.4818C14.852 31.7802 20.1478 31.7802 25.4168 30.4818C25.4239 30.4798 25.431 30.4776 25.4381 30.4754C26.6008 30.1645 27.6533 29.4367 28.5335 28.5421C29.4137 27.6476 30.124 26.5857 30.4177 25.4232C30.4192 25.4169 30.4206 25.4104 30.4219 25.404C31.4104 21.1666 31.6429 16.9142 31.1141 12.67L31.1119 12.6678C30.8901 10.9154 29.6158 9.45784 28.0379 8.52139C28.0358 8.51996 28.0336 8.51854 28.0315 8.51712C24.8639 6.66746 21.8213 4.76375 19.0508 3.15945C18.6134 2.9057 18.1141 2.77672 17.6152 2.7728ZM17.6003 4.93253C17.7082 4.93356 17.817 4.97341 17.9528 5.05215C20.675 6.62848 23.7246 8.53428 26.9292 10.4055C28.0374 11.0659 28.8451 12.1905 28.9415 12.9413C29.4379 16.9251 29.2231 20.8986 28.2943 24.8892C28.1388 25.5017 27.6378 26.3338 26.9741 27.0083C26.3104 27.6828 25.4885 28.1962 24.8763 28.3606C24.0594 28.5613 23.2458 28.5276 22.4303 28.6618C22.9088 25.9036 22.9227 23.0412 22.3363 20.3112C22.3367 20.2271 22.3274 20.1433 22.3085 20.0613C22.3019 20.0318 22.2941 20.0026 22.285 19.9737C22.2837 19.968 22.2822 19.9623 22.2808 19.9566C22.278 19.9481 22.2752 19.9395 22.2722 19.931C22.2694 19.9238 22.2666 19.9167 22.2637 19.9096C22.2533 19.8829 22.2419 19.8565 22.2295 19.8306C22.214 19.7977 22.1969 19.7656 22.1782 19.7345C22.0789 19.5658 21.9361 19.4268 21.7648 19.3321C21.5934 19.2375 21.3998 19.1905 21.2041 19.1961C18.8394 18.1672 16.2031 18.1749 13.8384 19.2004C13.5755 19.1817 13.3148 19.2584 13.104 19.4166C12.8933 19.5748 12.7467 19.8037 12.6912 20.0613C12.6899 20.0669 12.6904 20.0728 12.6891 20.0784C12.6727 20.1528 12.6641 20.2287 12.6635 20.3048V20.3091C12.0767 23.0397 12.0909 25.9029 12.5695 28.6618C11.754 28.5276 10.9404 28.5613 10.1235 28.3606C9.51123 28.1962 8.6896 27.6828 8.0257 27.0083C7.36307 26.3351 6.86235 25.5053 6.70551 24.8935C5.77854 20.9092 5.56102 16.9378 6.05396 12.9605V12.9583C6.15007 12.2007 6.97531 11.0643 8.0962 10.4077C11.3692 8.52212 14.4802 6.60589 17.2521 5.04361H17.2542C17.3855 4.96928 17.4924 4.9315 17.6003 4.93253ZM17.4999 20.5014C18.4392 20.4996 19.3565 20.7829 20.2407 21.1529C20.7342 23.703 20.7396 26.397 20.2108 28.9352C18.4048 29.0988 16.5949 29.0988 14.789 28.9352C14.261 26.4012 14.266 23.7121 14.757 21.1657C15.6403 20.7911 16.5591 20.5031 17.4999 20.5014Z" fill="#2785F6"/>
</svg>
