<svg width="30" height="30" viewBox="0 0 30 30" fill="none" xmlns="http://www.w3.org/2000/svg">
<path d="M26.0068 6.35055C24.3935 4.29494 22.237 2.732 19.7813 1.83867C16.6915 0.720445 13.3076 0.720445 10.2178 1.83867H10.2143C7.76007 2.73198 5.60465 4.29403 3.99171 6.34825C2.04348 8.80915 0.988684 11.8587 1.00009 14.9974C1.00009 15.1562 1.00009 15.3116 1.00757 15.4578C1.10373 18.4148 2.13443 21.2654 3.95169 23.6002C5.76895 25.935 8.2793 27.6338 11.1223 28.4529C13.9653 29.272 16.9948 29.1691 19.7757 28.1591C22.5566 27.1491 24.9459 25.2839 26.6006 22.8312C26.6588 22.7807 26.7022 22.7152 26.7261 22.6419C28.1254 20.5002 28.9083 18.0148 28.9892 15.4578C28.9938 15.311 28.9967 15.1557 28.9967 14.9974C29.0081 11.8597 27.9539 8.81107 26.0068 6.35055ZM25.1834 6.70329L23.5417 11.7561L19.6795 13.4501L15.419 10.3538L15.4294 5.83152L19.6996 2.72884C21.8433 3.55196 23.7339 4.92225 25.1834 6.70329ZM19.1196 14.1095L17.5412 18.9678H12.4326L10.8553 14.1095L14.988 11.107L19.1196 14.1095ZM14.9984 1.86226C16.2502 1.86097 17.4958 2.03885 18.6972 2.3905L14.9984 5.07772L11.2996 2.3905C12.501 2.03885 13.7466 1.86097 14.9984 1.86226ZM10.2972 2.72884L14.5662 5.83095L14.5559 10.3532L10.2937 13.4495L6.45509 11.7566L4.81342 6.70329C6.26272 4.92214 8.15343 3.55182 10.2972 2.72884ZM4.18045 7.54628L5.59772 11.9091L1.86898 14.6171C1.93263 12.085 2.73617 9.627 4.18045 7.54628ZM1.87876 15.6753L6.15472 12.568L9.99337 14.2609L11.6322 19.3039L9.30171 22.0751H3.93187C2.70149 20.1572 1.99373 17.951 1.87876 15.6753ZM4.53549 22.9383H9.18662L10.6327 27.3891C8.20959 26.5321 6.09016 24.9849 4.53549 22.9383ZM18.4291 27.6803C16.207 28.2768 13.8678 28.2834 11.6425 27.6993L9.98589 22.6016L12.3198 19.831H17.6551L20.0143 22.6051L18.4291 27.6803ZM19.4291 27.365L20.8102 22.9383H25.4584C23.9187 24.9655 21.8245 26.5031 19.4291 27.365ZM26.0649 22.0751H20.6951L18.3393 19.3033L19.9775 14.262L23.8392 12.5686L28.1157 15.6758C28.0011 17.9511 27.2941 20.157 26.0649 22.0751ZM24.4002 11.9091L25.8163 7.54628C27.2602 9.62712 28.0633 12.0851 28.1266 14.6171L24.4002 11.9091Z" fill="white" stroke="white"/>
</svg>
