<svg xmlns="http://www.w3.org/2000/svg" enable-background="new 0 0 2500 2500" viewBox="0 0 2500 2500"><circle cx="1250" cy="1250" r="884.59" fill="#eff3f8"/><path fill="#6a7999" d="M264.94,485.81l40.53,1327.66c2.88,94.39,81.72,170.93,176.14,170.93h614.62       c94.39,0,168.58-76.55,165.7-170.93l-7.49-245.23l-29.5-966.83l-3.54-115.61c-2.88-94.39-81.75-170.9-176.14-170.9H430.64       C336.26,314.91,262.06,391.42,264.94,485.81z"/><path fill="#fff" d="M361.95,1817.86L321.2,483.03c-2.04-66.7,50.38-120.77,117.08-120.77h611.98       c66.7,0,122.42,54.07,124.46,120.77l40.75,1334.83c2.04,66.7-50.38,120.77-117.08,120.77H486.41       C419.71,1938.63,363.99,1884.56,361.95,1817.86z"/><path fill="#eff3f8" d="M1238.18,976.02c-25.26,153.59-862.33,172.23-844.55,20.29c3.42-29.2,20.81-55.97,54.47-75.26       c-9.81-14.69-15.53-32.33-15.53-51.31c0-51.09,41.43-92.52,92.55-92.52c11.75,0,22.99,2.18,33.34,6.17       c2.3-17.5,7.18-35.16,14.78-52.38c38.12-86.4,130.64-129.26,206.63-95.71c40.49,17.85,68.12,53.82,79.32,96.58       c23.25-20.62,53.84-33.12,87.34-33.12c72.77,0,131.77,59,131.77,131.77c0,14.57-2.37,28.6-6.73,41.69       c18.34-6.48,39.15-8.99,60.78-6.5C1196.94,873.15,1246.92,922.89,1238.18,976.02z"/><path fill="#eff3f8" d="M883.17,1161.1l-82.77,100.56c-8.09,9.83-23.14,9.83-31.24,0l-82.77-100.56       c-10.86-13.2-1.47-33.08,15.62-33.08h42.15V950.17c0-11.17,9.06-20.23,20.23-20.23h49.94c11.17,0,20.23,9.06,20.23,20.23       v177.85h33C884.64,1128.02,894.03,1147.91,883.17,1161.1z"/><path d="M1096.21,1987.35H481.6c-95.82,0-176.16-77.96-179.09-173.78L261.99,485.91c-1.42-46.47,15.36-90.17,47.23-123.03       c31.86-32.84,74.98-50.93,121.42-50.93h614.61c95.82,0,176.16,77.96,179.09,173.78l40.53,1327.65       c1.42,46.47-15.35,90.17-47.23,123.03C1185.78,1969.26,1142.66,1987.35,1096.21,1987.35z M430.65,317.85       c-44.84,0-86.45,17.45-117.19,49.14c-30.76,31.71-46.94,73.88-45.57,118.75l40.53,1327.65       c2.83,92.67,80.52,168.07,173.19,168.07h614.61c44.84,0,86.46-17.45,117.19-49.14c30.76-31.71,46.94-73.88,45.57-118.75       l-40.53-1327.65c-2.83-92.67-80.53-168.07-173.19-168.07H430.65z"/><path fill="#6a7999" d="M843.12,424.28H649.21c-20.96,0-40.05-13.23-47.61-33.01l-21.75-56.9h327.13l-18.27,56.9       C882.37,411.05,864.09,424.28,843.12,424.28z"/><path d="M843.12,426.43H649.21c-22.14,0-42.38-14.03-50.36-34.91l-21.75-56.9c-0.58-1.52,0.18-3.23,1.7-3.81       c1.52-0.58,3.23,0.18,3.81,1.7l21.75,56.9c7.11,18.61,25.14,31.11,44.85,31.11h193.91c1.63,0,2.95,1.32,2.95,2.95       C846.07,425.11,844.75,426.43,843.12,426.43z"/><path fill="#f39474" d="M1314.21,1069.8c0,0-29.38,10.2-39.99,20.67c-10.61,10.47-13.29,51.08-11.78,56.13             c3.74,12.48,26.3,20.73,34.45,8.45c8.15-12.27,2.96-35.98,2.96-35.98l27.61-6.54c0,0,9.43-12.76,8.66-15.52             S1314.21,1069.8,1314.21,1069.8z"/><path fill="#ffb59c" d="M1406.29,1194.12c0,0-32.13-114.97-69.45-150.73c-37.31-35.76-66.64-51.63-74.16-43.11             c-7.52,8.52-7.47,22.58,31.48,51.13c0,0,14.72,33.88,26.35,50.01c0,0-30.12-13.78-42.93,3.86             c-12.8,17.64,11.77,37.88,11.77,37.88s-5.92,50.03,13.02,69.05c18.94,19.02,59.21,40.73,59.21,40.73L1406.29,1194.12z"/><path d="M1302.37,1215.15c-0.76,0-1.51-0.29-2.09-0.87c-18-18.08-14.89-60.96-14.02-69.9             c-9.22-8.16-21.99-25.8-11.06-40.85c14.06-19.37,45.22-5.41,46.54-4.81c1.48,0.68,2.13,2.42,1.45,3.91             c-0.68,1.48-2.43,2.13-3.9,1.46c-0.28-0.13-28.1-12.56-39.32,2.91c-11.02,15.17,11.04,33.69,11.26,33.88             c0.77,0.64,1.17,1.63,1.05,2.62c-0.06,0.49-5.53,48.84,12.18,66.62c1.15,1.15,1.14,3.02-0.01,4.17             C1303.88,1214.87,1303.13,1215.15,1302.37,1215.15z"/><path d="M1362.68,1171.1c-1.28,0-2.46-0.85-2.83-2.15c-10.24-36.12-41.04-65.1-41.34-65.38             c-1.19-1.11-1.26-2.97-0.15-4.17c1.11-1.19,2.98-1.26,4.17-0.15c1.32,1.22,32.31,30.35,43,68.09             c0.44,1.57-0.47,3.2-2.03,3.64C1363.22,1171.07,1362.95,1171.1,1362.68,1171.1z"/><path fill="#f39474" d="M1314.21,1069.8c0,0-29.38,10.2-39.99,20.67c-10.61,10.47-13.29,51.08-11.78,56.13             c3.74,12.48,26.3,20.73,34.45,8.45c8.15-12.27,2.96-35.98,2.96-35.98l27.61-6.54c0,0,9.43-12.76,8.66-15.52             S1314.21,1069.8,1314.21,1069.8z"/><path fill="#ffb59c" d="M1406.29,1194.12c0,0-32.13-114.97-69.45-150.73c-37.31-35.76-66.64-51.63-74.16-43.11             c-7.52,8.52-7.47,22.58,31.48,51.13c0,0,14.72,33.88,26.35,50.01c0,0-30.12-13.78-42.93,3.86             c-12.8,17.64,11.77,37.88,11.77,37.88s-5.92,50.03,13.02,69.05c18.94,19.02,59.21,40.73,59.21,40.73L1406.29,1194.12z"/><path d="M1302.37,1215.15c-0.76,0-1.51-0.29-2.09-0.87c-18-18.08-14.89-60.96-14.02-69.9             c-9.22-8.16-21.99-25.8-11.06-40.85c14.06-19.37,45.22-5.41,46.54-4.81c1.48,0.68,2.13,2.42,1.45,3.91             c-0.68,1.48-2.43,2.13-3.9,1.46c-0.28-0.13-28.1-12.56-39.32,2.91c-11.02,15.17,11.04,33.69,11.26,33.88             c0.77,0.64,1.17,1.63,1.05,2.62c-0.06,0.49-5.53,48.84,12.18,66.62c1.15,1.15,1.14,3.02-0.01,4.17             C1303.88,1214.87,1303.13,1215.15,1302.37,1215.15z"/><path d="M1362.68,1171.1c-1.28,0-2.46-0.85-2.83-2.15c-10.24-36.12-41.04-65.1-41.34-65.38             c-1.19-1.11-1.26-2.97-0.15-4.17c1.11-1.19,2.98-1.26,4.17-0.15c1.32,1.22,32.31,30.35,43,68.09             c0.44,1.57-0.47,3.2-2.03,3.64C1363.22,1171.07,1362.95,1171.1,1362.68,1171.1z"/><path fill="#89d595" d="M1311.25,1288.16c0,0-3.44,41.41,31.99,75.89c0,0,74.94,146.48,141.13,166.13             c30.9,9.17,93.67-10.29,154.71-36.32c42.34-18.03,83.86-39.22,113.28-56.2c19.14-11.04,33.17-20.28,39.04-25.72             c9.88-9.15-35.27-5.38-27.57-18.85c44.35-77.75-19.72-182.88-19.72-182.88s-112.64,43.6-190.72,120.41             c0,0-38.1-1.25-44.97,29.98c0,0-52.47-76.18-57.76-99.61c-5.31-23.42-6.56-33.75-21.84-43.73             c0,0-11.27-41.72-29.69-44.73c-18.4-3.06-107.75,58.58-106.48,77.63C1293.87,1269.25,1299.7,1288.16,1311.25,1288.16z"/><path fill="#358f6e" d="M1639.08,1493.87c42.34-18.03,83.86-39.22,113.28-56.2c-2.14-17.53-4.44-35.92-4.82-37.48             c-0.76-3.06-64.29-65.25-64.29-65.25S1666.9,1456.51,1639.08,1493.87z"/><path fill="#358f6e" d="M1311.25,1288.16c0,0-3.44,41.41,31.99,75.89c0,0,74.94,146.48,141.13,166.13             c0.16,0.04,0.31,0.09,0.47,0.13c-64.43-27.64-131.71-188.04-131.71-188.04c-35.43-34.51-32.01-75.89-32.01-75.89             c-10.64,0-16.42-16.02-18.23-33.42c-6.56,7.01-10.51,13.12-10.24,17.22C1293.87,1269.25,1299.7,1288.16,1311.25,1288.16z             "/><path d="M1484.38,1533.15c-0.28,0-0.56-0.04-0.84-0.12c-65.49-19.46-137.32-156.76-142.7-167.2             c-30.71-30.16-32.76-64.91-32.65-75.05c-14.91-3.38-17.92-31.42-18.5-40.4c-0.15-2.35-0.62-9.49,19.92-28.11             c24.78-22.46,74.66-55.16,90-52.63c1.61,0.27,2.7,1.78,2.43,3.39c-0.26,1.6-1.75,2.7-3.39,2.43             c-11.1-1.84-57.2,25.92-85.08,51.18c-17.1,15.5-18.1,21.8-17.99,23.36c1.13,17.53,6.41,35.22,15.66,35.22             c0.82,0,1.61,0.35,2.17,0.95c0.56,0.6,0.84,1.42,0.77,2.24c-0.03,0.4-2.82,40.48,31.12,73.54             c0.23,0.22,0.42,0.48,0.57,0.77c0.74,1.45,75.13,145.58,139.35,164.66c1.56,0.46,2.45,2.1,1.99,3.67             C1486.83,1532.32,1485.65,1533.15,1484.38,1533.15z"/><polygon fill="#ffb59c" points="1766.8 2068.72 1617.02 2017.09 1663.1 1882.51 1812.01 1922.04"/><path fill="#f95d5d" d="M1714.67,2010.71c-0.99,22.35,32.55,28.77,32.55,28.77c-13.02,20.76,17.88,29.14,30.96,32.59               c13.07,3.45,66.86,78.9,162.83,109.12c95.97,30.2,145.44-44.34,129.43-125.88               c-16.01-81.53-145.95-104.77-160.07-110.11c-14.1-5.34-55.4-32.42-75.05-39.02c-19.66-6.58-37.38,5.85-37.38,5.85               s-55.72-8.04-57.21-8.06c23.97,6.82,43.3,52.3,43.3,52.3l-0.06-0.03c-1.21-0.51-19.79-8.36-37.13-11.2               C1728.91,1942.13,1715.66,1988.35,1714.67,2010.71z"/><path fill="#ed3b3b" d="M1941.01,2181.18c-26.03-8.2-48.96-19.71-68.81-32.23c6.43,2.58,13.08,4.99,19.94,7.14               c95.98,30.19,145.45-44.35,129.43-125.88c-5.53-28.23-24.74-49.48-48.09-65.4c40.87,16.01,87.75,43.62,96.96,90.48               C2086.43,2136.85,2036.99,2211.39,1941.01,2181.18z"/><path d="M1968.08,2187.16c56.06-10.31,82.22-68.67,69.95-131.14c-16-81.51-145.95-104.77-160.07-110.11               c-13.45-5.07-51.66-29.97-72.22-37.98c7.01-2.88,17.95-5.64,29.57-1.75c19.66,6.6,60.96,33.7,75.07,39.02               c14.1,5.34,144.05,28.6,160.07,110.11C2084.84,2128.79,2046.13,2196.58,1968.08,2187.16z"/><path fill="#ffce33" d="M1711.2,2009.94c-0.99,22.35,32.55,28.77,32.55,28.77s36.61,11.1,58.12,15.91               c21.51,4.81,81.39,62.89,101.6,66.93c20.23,4.04,50.57-36.05,41.05-67.32c-7.53-24.74-158.42-97.08-158.42-97.08               l-5.24-2.17c-1.21-0.51-20.15-7.87-37.49-10.71C1725.45,1941.36,1712.2,1987.57,1711.2,2009.94z"/><path d="M1890.98,2124.17c-0.04,0-0.09,0-0.13,0c-1.63-0.07-2.89-1.44-2.82-3.07c1.72-40.57,17.7-78.01,38.86-91.05               c1.38-0.86,3.2-0.42,4.06,0.96c0.85,1.39,0.42,3.2-0.96,4.06c-19.28,11.88-34.45,48.17-36.07,86.28               C1893.85,2122.93,1892.55,2124.17,1890.98,2124.17z"/><path d="M1863.22,2104.86c-0.04,0-0.09,0-0.13,0c-1.63-0.07-2.89-1.44-2.82-3.07c1.72-40.57,17.7-78.01,38.86-91.05               c1.39-0.86,3.2-0.42,4.06,0.96c0.85,1.39,0.42,3.2-0.96,4.06c-19.28,11.88-34.45,48.17-36.07,86.28               C1866.1,2103.62,1864.79,2104.86,1863.22,2104.86z"/><path d="M1835.47,2085.54c-0.04,0-0.09,0-0.13,0c-1.63-0.07-2.89-1.44-2.82-3.07c1.72-40.57,17.7-78.01,38.86-91.05               c1.38-0.86,3.2-0.42,4.06,0.96c0.85,1.39,0.42,3.2-0.96,4.06c-19.28,11.88-34.45,48.17-36.07,86.28               C1838.34,2084.3,1837.03,2085.54,1835.47,2085.54z"/><path d="M1944.52,2057.18c-1.26,0-2.43-0.82-2.82-2.09c-5.25-17.24-96.69-66.42-156.88-95.28l-5.09-2.11               c-0.2-0.08-19.35-7.66-36.83-10.52c-2.36-0.38-4.71,0.41-7.2,2.43c-11.95,9.71-20.74,42.3-21.55,60.46               c-0.07,1.63-1.53,2.88-3.08,2.81c-1.63-0.07-2.89-1.45-2.82-3.08c0.75-16.94,9.32-53.06,23.72-64.77               c3.81-3.1,7.82-4.34,11.86-3.68c18.43,3.02,37.99,10.83,38.17,10.91l5.21,2.16c15.71,7.53,152.43,73.69,160.12,98.94               c0.47,1.56-0.41,3.21-1.96,3.68C1945.09,2057.13,1944.8,2057.18,1944.52,2057.18z"/><path d="M1807.71,2066.23c-0.04,0-0.09,0-0.13,0c-1.63-0.07-2.89-1.44-2.82-3.07c1.72-40.57,17.71-78.02,38.86-91.05               c1.38-0.86,3.2-0.42,4.06,0.96c0.85,1.39,0.42,3.2-0.96,4.06c-19.28,11.88-34.44,48.16-36.07,86.28               C1810.59,2064.99,1809.28,2066.23,1807.71,2066.23z"/><g><path d="M1790.19,2048.5c-1.1,0-2.15-0.61-2.66-1.66c-0.7-1.45-17.19-35.81-17.19-60.74c0-1.63,1.32-2.95,2.95-2.95              s2.95,1.32,2.95,2.95c0,23.59,16.44,57.82,16.61,58.17c0.71,1.47,0.09,3.23-1.37,3.94              C1791.06,2048.4,1790.62,2048.5,1790.19,2048.5z"/></g><g><path d="M1929.47,2044.8c-1.01,0-2-0.52-2.55-1.46c-0.82-1.4-20.18-34.63-22.28-56.97c-0.16-1.62,1.04-3.06,2.66-3.21              c1.62-0.16,3.06,1.04,3.21,2.66c1.99,21.04,21.31,54.21,21.5,54.54c0.82,1.4,0.35,3.21-1.05,4.03              C1930.49,2044.67,1929.98,2044.8,1929.47,2044.8z"/></g><g><path d="M2024.03,2033.42c-0.79,0-1.59-0.32-2.17-0.95c-0.85-0.92-20.76-22.84-22.35-51.05              c-0.09-1.63,1.15-3.02,2.78-3.11c1.57-0.11,3.02,1.15,3.11,2.78c1.48,26.12,20.61,47.18,20.8,47.39              c1.1,1.2,1.03,3.06-0.17,4.17C2025.46,2033.17,2024.75,2033.42,2024.03,2033.42z"/></g><g><polygon fill="#564dc6" points="1293.46 1801.18 1595.29 1940.89 1926.98 1961.16 2130.68 1829.97 2093.33 1743.59 2063.24 1673.98 2042.16 1625.2 1850.26 1609.54 1789.4 1604.59 1701.84 1636.08 1613.42 1667.86 1318 1677.47"/><path fill="#2e2780" d="M1602.13,1822.24l179.61,105.43l211.82-9.4l31.62-20.35l-18.99-112.13               c0,0-290.57,34.54-400,36.37C1604.81,1822.18,1603.45,1822.2,1602.13,1822.24z"/><path fill="#564dc6" d="M1141.68,1880.44c17.78,37.7,74.54,43.56,89.45,52.8c14.94,9.24,34.14,30.58,81.06,40.52               c0,0,6.4,24.9,31.28,28.44c24.9,3.56,64-4.26,64-4.26s-4.98,33.55,32.7,37.38c37.68,3.86,275.06,5.01,295.19-11.23               c31.01-25.05,39.32-162.77-4.23-175.22c-13.95-3.98-112.37-23.86-131.57-28.14c-19.2-4.26-65.42-41.24-88.88-38.38               c-23.46,2.84-144.32-75.38-144.32-75.38l247.06-39.1c-86.02-10.56-341.72-46.87-406.35-2.84               C1126.73,1719.76,1123.89,1842.76,1141.68,1880.44z"/><path fill="#2e2780" d="M1141.67,1880.46c17.77,37.67,74.55,43.54,89.47,52.78c14.93,9.24,34.12,30.58,81.04,40.53               c0,0,6.4,24.9,31.29,28.45c24.88,3.55,63.99-4.26,63.99-4.26s-4.98,33.53,32.71,37.36               c37.67,3.86,275.04,5.02,295.18-11.25c9.22-7.45,16.45-24.88,20.88-45.99c-0.12,0.1-0.24,0.2-0.37,0.3               c-20.12,16.27-257.49,15.11-295.18,11.25c-37.69-3.84-32.71-37.36-32.71-37.36s-39.09,7.82-63.99,4.26               c-24.88-3.55-31.27-28.45-31.27-28.45c-46.93-9.95-66.14-31.29-81.06-40.53c-14.93-9.24-80.58-31.41-98.37-69.08               c-8.08-17.16-10.07-48.61-2.23-82.97C1127.09,1791.27,1129.73,1855.13,1141.67,1880.46z"/><path d="M1538.59,2040.62c-46.34,0-85.9-1.05-98.72-2.36c-12.67-1.3-22.19-5.94-28.3-13.8               c-6.34-8.16-7.31-17.66-7.28-22.93c-10.48,1.87-40.4,6.57-61.24,3.59c-22.81-3.26-31.12-22.75-33.18-28.84               c-36.29-8.01-55.72-22.55-69.96-33.21c-3.87-2.9-7.21-5.4-10.34-7.33c-3.77-2.33-10.96-4.6-19.29-7.23               c-23.02-7.27-57.82-18.25-71.29-46.81c-0.69-1.47-0.06-3.23,1.41-3.92c1.47-0.7,3.23-0.06,3.92,1.41               c12.37,26.22,44.37,36.32,67.73,43.7c9.06,2.86,16.23,5.12,20.62,7.84c3.35,2.07,6.79,4.65,10.77,7.62               c14.02,10.49,33.23,24.86,69.35,32.53c1.1,0.23,1.97,1.07,2.25,2.15c0.24,0.93,6.27,23.03,28.84,26.26               c24.1,3.44,62.61-4.16,63-4.24c0.94-0.19,1.91,0.09,2.61,0.76c0.69,0.66,1.03,1.62,0.88,2.57               c-0.02,0.12-1.73,12.77,5.88,22.52c5.09,6.51,13.23,10.38,24.21,11.5c37.38,3.83,274.35,4.48,293.04-10.61               c1.27-1.03,3.12-0.82,4.15,0.44c1.02,1.27,0.82,3.12-0.44,4.15C1723.64,2037.33,1620.54,2040.62,1538.59,2040.62z"/><path d="M1735.37,2027.02c-0.86,0-1.71-0.38-2.3-1.1c-1.02-1.27-0.82-3.12,0.44-4.15               c19.62-15.84,30.79-84.23,21.36-130.68c-3.19-15.68-10.03-35.24-24.56-39.39c-9.16-2.62-56.69-12.49-91.4-19.7               c-17.99-3.74-33.53-6.96-39.99-8.4c-7.95-1.77-19.47-8.37-32.8-16.01c-19.58-11.22-41.76-23.94-55.08-22.33               c-0.48,0.06-0.99,0.09-1.53,0.09c-26.66,0.01-132.54-68-144.76-75.9c-1.37-0.88-1.76-2.71-0.88-4.08               c0.88-1.37,2.71-1.76,4.08-0.87c33.37,21.59,124.13,77.13,142.38,74.92c15.18-1.84,38.34,11.39,58.72,23.07               c12.38,7.1,24.07,13.8,31.15,15.37c6.43,1.43,21.94,4.65,39.91,8.38c36.73,7.63,82.45,17.13,91.82,19.8               c13.75,3.93,23.68,19.1,28.72,43.89c9.04,44.51-0.18,117.67-23.43,136.45               C1736.67,2026.81,1736.02,2027.02,1735.37,2027.02z"/><path fill="#89d595" d="M1706.42,1533.68c-37.81,51.34-34.62,90.1-4.59,102.41c5.44,2.23,11.78,3.62,18.91,4.02                  c37.93,2.19,88.8,1.44,88.8,1.44s62.34,26.93,96.48,31.21c19.39,2.42,40.09-2.7,54.32-7.57                  c10.8-3.72,17.91-7.29,17.91-7.29c11.03,12.49,41.59,19.19,71.3,17.48c4.61-0.26,9.2-0.73,13.69-1.4                  c17.5-2.64,33.55-8.49,43.62-18.15c2.94-2.8,5.38-5.95,7.19-9.42c12.85-24.67-15.88-49.77-15.88-49.77                  s13.5-18.48,15.66-44.09c0.06-0.69,0.08-1.42,0.08-2.15c0-0.81-0.04-1.64-0.1-2.5c-0.02-0.16-0.04-0.35-0.04-0.51                  c-0.04-0.39-0.1-0.79-0.14-1.2c-0.06-0.49-0.14-0.99-0.22-1.48c-0.06-0.45-0.14-0.89-0.24-1.34                  c-0.2-1.08-0.45-2.17-0.73-3.29c-0.14-0.53-0.28-1.06-0.43-1.58c-7.37-26.17-33.93-60.47-33.93-60.47                  s15.74-148.06-1.04-218.83c-3.66-15.47-8.87-27.25-16.14-32.98c-40.51-32-158.49-41.49-209.63-40.17                  c-49.24,1.26-166.01,27.37-172.18,82.12C1672.43,1327.18,1722.3,1512.11,1706.42,1533.68z"/><path d="M1788.83,1644.62c-18.38,0-45.71-0.26-68.26-1.57c-7.34-0.42-14.02-1.84-19.85-4.24                  c-11.89-4.87-19.93-13.7-23.25-25.54c-5.93-21.13,3.52-50.02,26.59-81.34c7.5-10.19-2.35-67.56-11.87-123.04                  c-4.81-27.98-9.77-56.91-13.02-82.22c-0.21-1.61,0.94-3.09,2.55-3.3c1.64-0.2,3.09,0.94,3.3,2.55                  c3.23,25.18,8.18,54.05,12.98,81.97c12.32,71.75,19.19,116.14,10.81,127.53c-21.97,29.83-31.09,56.91-25.66,76.25                  c2.81,10.02,9.66,17.52,19.81,21.68c5.23,2.14,11.26,3.42,17.95,3.81c37.4,2.16,88.08,1.45,88.59,1.44                  c1.54,0,2.97,1.28,2.99,2.9c0.02,1.63-1.28,2.97-2.91,2.99C1809.38,1644.5,1801.1,1644.62,1788.83,1644.62z"/><path fill="#358f6e" d="M2043.34,1364.97c0,0,0,93.54,3.92,105.18c0,0-62.46-6.3-66.53,6.8                  c0,0-64.46-24.05-74.77-23.01c-10.32,1.04,61.75,93.52,61.75,93.52l104.43,24.89l50.25-18.67L2043.34,1364.97z"/><polygon fill="#ffb59c" points="1568.15 2063.24 1725.59 2045.55 1710 1904.15 1556.05 1910.23"/><path fill="#f95d5d" d="M1631.69,2018.01c-3.91,22.03-38.04,20.97-38.04,20.97c8.17,23.1-23.81,24.53-37.33,25.05                   c-13.51,0.51-82.47,62.41-182.72,70.94c-100.25,8.52-132.25-75.02-98.83-151.1                   c33.42-76.07,165.3-70.39,180.24-72.52c14.93-2.13,61.14-19.55,81.76-21.69c20.62-2.13,35.2,13.87,35.2,13.87                   s56.13,4.32,57.59,4.62c-24.88,1.42-53.68,41.59-53.68,41.59l0.07-0.01c1.3-0.24,21.14-3.84,38.68-2.83                   C1632.77,1947.97,1635.61,1995.97,1631.69,2018.01z"/><path fill="#ed3b3b" d="M1373.6,2134.96c27.19-2.32,52.09-8.55,74.18-16.43c-6.84,1.12-13.85,2.01-21.02,2.62                   c-100.25,8.51-132.26-75.03-98.83-151.1c11.55-26.34,34.95-42.89,61.2-53.33c-43.38,6.7-95.16,23.41-114.37,67.13                   C1241.36,2059.95,1273.34,2143.49,1373.6,2134.96z"/><path d="M1345.88,2134.88c-52.45-22.3-65.25-84.96-39.64-143.24c33.4-76.05,165.3-70.38,180.24-72.52                   c14.24-2.01,56.96-17.97,78.77-21.3c-6.21-4.35-16.29-9.42-28.47-8.16c-20.63,2.15-66.85,19.58-81.78,21.69                   c-14.93,2.13-146.82-3.53-180.24,72.52C1244.67,2052.44,1267.65,2127.04,1345.88,2134.88z"/><path fill="#ffce33" d="M1635.24,2018.01c-3.91,22.03-38.04,20.97-38.04,20.97s-38.15,2.84-60.19,2.84                   c-22.04,0-93.15,43.61-113.76,43.14c-20.62-0.47-41.48-46.22-25.36-74.66c12.75-22.5,175.79-60.15,175.79-60.15                   l5.58-0.98c1.3-0.24,21.38-3.29,38.92-2.27C1636.31,1947.97,1639.15,1995.97,1635.24,2018.01z"/><path d="M1435.52,2090.32c-0.17,0-0.35-0.02-0.52-0.05c-1.6-0.29-2.67-1.82-2.38-3.42                   c6.74-37.55-0.14-76.27-16.36-92.07c-1.17-1.14-1.19-3-0.05-4.17c1.14-1.17,3-1.19,4.17-0.05                   c17.8,17.34,25.23,57.37,18.05,97.34C1438.16,2089.32,1436.92,2090.32,1435.52,2090.32z"/><path d="M1466.82,2077.53c-0.17,0-0.35-0.02-0.52-0.05c-1.6-0.29-2.67-1.82-2.38-3.42                   c6.74-37.55-0.14-76.27-16.36-92.07c-1.17-1.14-1.19-3-0.06-4.17c1.14-1.17,3-1.19,4.17-0.05                   c17.8,17.34,25.22,57.37,18.05,97.34C1469.46,2076.53,1468.22,2077.53,1466.82,2077.53z"/><path d="M1498.12,2064.74c-0.17,0-0.35-0.02-0.52-0.05c-1.6-0.29-2.67-1.82-2.38-3.42                   c6.74-37.55-0.14-76.27-16.36-92.07c-1.17-1.14-1.19-3-0.05-4.17c1.14-1.17,3.01-1.19,4.17-0.05                   c17.81,17.34,25.23,57.37,18.05,97.34C1500.76,2063.74,1499.52,2064.74,1498.12,2064.74z"/><path d="M1635.24,2020.96c-0.17,0-0.34-0.02-0.52-0.05c-1.6-0.29-2.67-1.82-2.39-3.42                   c3.18-17.9,1.7-51.61-7.84-63.7c-1.98-2.51-4.11-3.81-6.49-3.95c-16.09-0.93-35.35,1.7-38.22,2.23l-5.6,0.98                   c-64.88,14.99-164.85,43.03-173.74,58.7c-0.81,1.42-2.59,1.91-4.02,1.11c-1.42-0.8-1.91-2.6-1.11-4.02                   c13.01-22.96,160.88-57.69,177.69-61.57l5.74-1.01c0.17-0.03,21.03-3.38,39.6-2.31c4.11,0.24,7.74,2.32,10.78,6.18                   c11.5,14.57,11.97,51.7,9.01,68.39C1637.89,2019.95,1636.65,2020.96,1635.24,2020.96z"/><path d="M1529.42,2051.95c-0.17,0-0.35-0.02-0.52-0.05c-1.6-0.29-2.67-1.82-2.38-3.42                   c6.74-37.55-0.14-76.27-16.36-92.07c-1.17-1.14-1.19-3-0.06-4.17c1.14-1.17,3.01-1.19,4.17-0.05                   c17.8,17.34,25.23,57.37,18.05,97.34C1532.07,2050.95,1530.82,2051.95,1529.42,2051.95z"/><g><path fill="#564dc6" d="M1648.87,1944.16c4.85,54.69,20.86,116.13,33.87,125.78c41.59,30.74,66.12-33.32,130.84-24.77                  c75.6,9.97,115.89-3.31,115.89-3.31c57.59,22.03,94.55-11.37,94.55-11.37c46.93,21.32,156.42-12.81,186.29-116.62                  c13.14-45.71-13-111.14-46.36-170.05c-18.64-32.88-39.54-63.72-57.1-87.99c-22.44-30.99-39.46-51.23-39.46-51.23                  l-12.59,49.91l-5.26,20.88l-10.7,42.44l-15.53,61.67c0,0-105.94,41.95-176.32,36.98                  c-70.38-5-59.01,28.43-81.76,27.01c-22.76-1.42-74.42-11.37-105.01,15.64                  C1647.58,1870.3,1645.44,1905.54,1648.87,1944.16z"/></g><g><path fill="#2e2780" d="M1673.16,2055.12c3.23,7.33,6.5,12.55,9.58,14.82c41.59,30.74,66.12-33.32,130.84-24.77                  c75.6,9.97,115.89-3.31,115.89-3.31c57.59,22.03,94.55-11.37,94.55-11.37c46.93,21.32,156.42-12.81,186.29-116.62                  c13.14-45.71-13-111.14-46.36-170.05c-18.64-32.88-39.54-63.72-57.1-87.99c-3.03-4.18-5.95-8.16-8.75-11.94                  c16.83,23.49,36.29,52.53,53.77,83.36c33.36,58.91,59.5,124.34,46.36,170.05                  c-29.87,103.81-139.37,137.94-186.3,116.62c0,0-36.96,33.41-94.55,11.37c0,0-40.29,13.28-115.89,3.31                  C1738.08,2020.23,1713.27,2081.56,1673.16,2055.12z"/></g><g><path fill="#2e2780" d="M1960.34,1665.18c8.1,5.14,30.83,20.23,45.22,36.35c7.74,8.65,20.88,13.54,33.28,16.29                  c16.02,3.55,30.79,3.57,31.01,3.57c0.77,1.75,2.05,3.78,3.68,5.95c5.54,7.43,12.53,13.34,20.37,17.55                  c14.34,7.72,31.5,9.77,47.82,5.18l22.24-6.25c-18.64-32.88-39.54-63.72-57.1-87.99                  c-10.07,9.67-26.11,15.51-43.62,18.15c-4.49,0.67-9.08,1.14-13.69,1.4c-29.71,1.71-60.27-5-71.3-17.48                  C1978.25,1657.89,1971.14,1661.47,1960.34,1665.18z"/></g><g><path fill="#358f6e" d="M1850.26,1609.54c0.28,11.31,2.13,20.21,5.99,24.75c18.95,22.28,101.11,29.02,101.11,29.02                  s1.1,0.65,2.98,1.87c10.8-3.72,17.91-7.29,17.91-7.29c11.03,12.49,41.59,19.19,71.3,17.48                  c4.61-0.26,9.2-0.73,13.69-1.4c17.5-2.64,33.55-8.49,43.62-18.15c2.94-2.8,5.38-5.95,7.19-9.42                  c12.85-24.67-15.88-49.77-15.88-49.77s13.5-18.48,15.66-44.09c0.06-0.69,0.08-1.42,0.08-2.15                  c0-0.81-0.04-1.64-0.1-2.5c-0.02-0.16-0.04-0.35-0.04-0.51c-0.04-0.39-0.1-0.79-0.14-1.2                  c-0.06-0.49-0.14-0.99-0.22-1.48c-0.06-0.45-0.14-0.89-0.24-1.34c-0.2-1.08-0.45-2.17-0.73-3.29                  c-0.14-0.53-0.28-1.06-0.43-1.58h-163.1v-39.9c-17.87-11.9-41.24-23.54-59.46-18.82                  C1871.7,1484.33,1849.16,1565.4,1850.26,1609.54z"/></g><g><path d="M1682.75,2072.89c-0.61,0-1.22-0.19-1.75-0.58c-16.64-12.3-33.83-90.22-36.23-145.38                  c-1.11-25.51,0.33-58.36,13.51-70.01c27.24-24.07,70.33-19.86,96.07-17.35c4.16,0.41,7.89,0.77,11.06,0.97                  c6.79,0.43,9.86-2.82,14.43-7.73c8.87-9.52,21.03-22.56,67.35-19.29c68.95,4.88,173.99-36.36,175.04-36.77                  c1.51-0.6,3.23,0.14,3.83,1.66c0.6,1.51-0.14,3.23-1.66,3.83c-4.1,1.62-95.79,37.59-165.13,37.6                  c-4.26,0-8.43-0.14-12.49-0.42c-43.56-3.08-54.56,8.77-62.63,17.42c-4.88,5.25-9.52,10.19-19.12,9.6                  c-3.25-0.2-6.96-0.57-11.26-0.99c-24.79-2.42-66.27-6.48-91.59,15.89c-8.93,7.89-13.02,31.09-11.53,65.34                  c2.69,61.67,21.35,131.65,33.85,140.9c1.31,0.97,1.59,2.81,0.62,4.12                  C1684.54,2072.47,1683.65,2072.89,1682.75,2072.89z"/></g><g><path fill="#ffb59c" d="M1951.07,1483.67c0,0-124.84-34.5-145.11-35.45s-112.99,29.48-107.3,40.08                  c5.68,10.61,19.8,7.1,19.8,7.1s-23.49,17.99-16.72,24.85c6.77,6.86,22,2.17,22,2.17s-11.76,13.68-7.92,19.63                  c3.84,5.94,18.49-0.01,18.49-0.01s-12.98,15.41-5.43,21.3c7.55,5.89,63.48-22.76,63.48-22.76                  s14.9,17.99,43.51,27.83c28.6,9.84,86.07,11.1,86.07,11.1L1951.07,1483.67z"/><path d="M1718.46,1498.35c-1.16,0-2.26-0.69-2.73-1.82c-0.62-1.51,0.1-3.23,1.6-3.85                  c5.26-2.17,51.89-21.14,66.32-18.04c13.92,2.99,36.28,9.85,37.22,10.14c1.56,0.48,2.43,2.13,1.95,3.69                  c-0.48,1.55-2.12,2.43-3.69,1.95c-0.23-0.07-23.06-7.08-36.73-10.01c-10.74-2.32-48.99,12.01-62.84,17.72                  C1719.22,1498.28,1718.84,1498.35,1718.46,1498.35z"/><path d="M1723.75,1525.37c-1.1,0-2.15-0.61-2.66-1.67c-0.71-1.47-0.09-3.23,1.38-3.94                  c49.24-23.73,51.69-23.69,52.44-23.67c2.52,0.05,32.53,5.36,41.67,6.99c1.6,0.29,2.67,1.82,2.38,3.42                  c-0.29,1.6-1.8,2.67-3.42,2.39c-14.18-2.53-37.16-6.53-40.51-6.88c-4.05,1.21-32.59,14.68-50.01,23.07                  C1724.62,1525.28,1724.18,1525.37,1723.75,1525.37z M1775.26,1501.95L1775.26,1501.95z"/><path d="M1734.33,1544.99c-1.17,0-2.27-0.7-2.74-1.85c-0.61-1.51,0.13-3.23,1.64-3.83                  c8.24-3.31,49.5-19.84,52.94-20.51c3.53-0.67,28.1,5.28,42.46,8.88c1.58,0.4,2.54,2,2.14,3.58                  c-0.39,1.58-2.03,2.53-3.58,2.14c-17.64-4.43-37.59-8.95-40.07-8.79c-2.5,0.58-33.07,12.68-51.7,20.17                  C1735.07,1544.92,1734.69,1544.99,1734.33,1544.99z"/></g><g><path fill="#89d595" d="M1895.65,1454.99c-22.26,5.75-52.14,132.25-33.18,154.53c18.96,22.28,101.1,29.03,101.1,29.03                 s30.45,18.3,48.22,38.21c17.77,19.91,64.29,19.86,64.29,19.86c15.04,33.7,60.14,27.96,93.33,27.48                 c48.43-0.71,73.22-43.08,68.01-109.92c-4.66-59.72-49.14-266.98-80.42-317.46c-31.28-50.48-114-81.17-114-81.17                 c-20.14,127.86,29.16,295.18,29.16,295.18s-28.73-18.91-56.21-24.1c-27.48-5.18-33.7,8.3-33.7,8.3                 S1929.86,1446.15,1895.65,1454.99z"/></g><g><path d="M2140.52,1727.7c-26.53,0-54.24-3.67-66.33-28.16c-9.15-0.22-48.04-2.26-64.6-20.82                 c-15.93-17.85-42.71-34.67-46.96-37.29c-8.64-0.76-83.62-7.92-102.4-30c-13.95-16.39-3.56-77.38,7.85-113.44                 c6.12-19.34,15.74-42.99,26.84-45.85c31.45-8.12,75.89,28.74,86.87,38.42c3.88-4.24,13.54-10.81,34.7-6.82                 c20.17,3.81,40.67,14.63,50.81,20.56c-5.44-20.11-20.46-79.47-27.82-147.33c-0.18-1.62,0.99-3.07,2.61-3.25                 c1.61-0.18,3.07,0.99,3.25,2.61c8.98,82.81,29.44,152.87,29.64,153.57c0.35,1.19-0.08,2.46-1.07,3.2                 c-0.99,0.74-2.34,0.77-3.38,0.09c-0.28-0.19-28.58-18.65-55.14-23.66c-24.54-4.63-30.26,6.21-30.49,6.67                 c-0.41,0.83-1.21,1.44-2.12,1.61c-0.92,0.17-1.87-0.09-2.55-0.72c-0.51-0.48-51.59-47.58-83.84-39.25                 c-4.73,1.22-13.52,12.93-22.69,41.92c-12.92,40.82-19.79,95.15-8.98,107.84c17.96,21.11,98.29,27.94,99.1,28.01                 c0.45,0.04,0.89,0.18,1.28,0.41c1.26,0.76,31.04,18.76,48.9,38.77c16.68,18.68,61.53,18.88,62.09,18.88c0,0,0,0,0,0                 h0c1.16,0,2.22,0.68,2.69,1.75c12.54,28.1,47.85,27,78.95,26.03c3.99-0.12,7.89-0.25,11.64-0.3                 c1.57-0.04,2.97,1.28,2.99,2.91c0.02,1.63-1.28,2.97-2.91,2.99c-3.72,0.05-7.58,0.17-11.54,0.3                 C2152.3,1727.52,2146.44,1727.7,2140.52,1727.7z"/></g><g><path d="M1982.24,1526.91c-0.99,0-1.95-0.5-2.51-1.4c-7.41-11.98-0.55-30.82-0.26-31.61                 c0.56-1.53,2.26-2.3,3.79-1.74c1.53,0.57,2.3,2.26,1.74,3.79c-0.06,0.17-6.15,16.94-0.26,26.46                 c0.86,1.38,0.43,3.2-0.96,4.06C1983.3,1526.77,1982.77,1526.91,1982.24,1526.91z"/></g><g><path d="M2104.59,1545.68c-0.75,0-1.49-0.28-2.06-0.84c-5.71-5.6-32.46-32.01-32.46-32.01l4.14-4.2                 c0,0,26.74,26.4,32.44,32c1.16,1.14,1.18,3.01,0.04,4.17C2106.12,1545.38,2105.36,1545.68,2104.59,1545.68z"/></g><g><path d="M1963.57,1641.49L1963.57,1641.49c-1.2,0-2.29-0.58-3.01-1.6c-3.22-4.57,1.76-24.03,4.37-31.37                 c0.55-1.53,2.22-2.33,3.77-1.79c1.53,0.55,2.33,2.23,1.79,3.77c-3.59,10.08-5.56,22.41-5.09,25.74                 c0.68,0.54,1.11,1.37,1.11,2.31C1966.51,1640.18,1965.2,1641.49,1963.57,1641.49z"/></g><g><path d="M2076.08,1699.56c-1.6,0-2.92-1.28-2.95-2.89c-0.05-2.76-0.36-27.16,5.75-35.5c0.96-1.31,2.81-1.6,4.12-0.63                 c1.32,0.96,1.6,2.81,0.64,4.12c-4.19,5.71-4.75,24.96-4.61,31.9c0.03,1.63-1.26,2.97-2.89,3.01                 C2076.11,1699.56,2076.09,1699.56,2076.08,1699.56z"/></g><g><path d="M1675.4,2032.38c-0.03,0-0.06-0.01-0.07-0.06C1675.5,2032.35,1675.51,2032.38,1675.4,2032.38z"/></g><g><path d="M1783.31,1886.73c-1.02,0-2.02-0.53-2.56-1.48c-9.46-16.47-14.41-40.29-14.61-41.29               c-0.33-1.6,0.7-3.15,2.3-3.48c1.61-0.33,3.16,0.7,3.48,2.3c0.05,0.24,4.97,23.91,13.95,39.54               c0.81,1.41,0.32,3.21-1.09,4.03C1784.32,1886.61,1783.81,1886.73,1783.31,1886.73z"/></g><g><path d="M1903.94,1868.47c-0.7,0-1.4-0.25-1.96-0.74c-17.86-15.88-32.74-46.69-33.36-48c-0.7-1.47-0.08-3.23,1.39-3.93               c1.46-0.71,3.23-0.08,3.93,1.39c0.15,0.31,14.99,31.05,31.96,46.14c1.22,1.08,1.33,2.95,0.24,4.16               C1905.56,1868.14,1904.75,1868.47,1903.94,1868.47z"/></g></g><g><path d="M1511.17,1388.99c-1.14,0-2.22-0.66-2.71-1.77c-8.08-18.56-3.12-27.26-2.53-28.19c0.88-1.37,2.7-1.78,4.07-0.9             c1.36,0.86,1.77,2.66,0.93,4.02c-0.13,0.24-3.81,7.25,2.93,22.72c0.65,1.49-0.03,3.23-1.53,3.88             C1511.96,1388.91,1511.56,1388.99,1511.17,1388.99z"/></g><g><path d="M1405.8,1241c-0.28,0-0.56-0.04-0.85-0.13c-1.56-0.47-2.44-2.11-1.98-3.67c4.95-16.52,24.17-22.49,24.99-22.73             c1.56-0.47,3.2,0.41,3.67,1.97c0.47,1.56-0.41,3.2-1.96,3.68c-0.17,0.05-17.01,5.33-21.05,18.78             C1408.24,1240.17,1407.07,1241,1405.8,1241z"/></g><g><path d="M1311.25,1291.12c-1.08,0-2.11-0.59-2.63-1.62c-0.73-1.45-0.15-3.23,1.3-3.96c0.64-0.32,15.72-7.93,28.04-11.94             c1.54-0.51,3.21,0.34,3.72,1.89s-0.34,3.21-1.89,3.72c-11.88,3.87-27.06,11.52-27.21,11.6             C1312.15,1291.02,1311.69,1291.12,1311.25,1291.12z"/></g><g><path d="M1343.14,1365.38c-1,0-1.98-0.51-2.53-1.43c-0.84-1.4-0.39-3.21,1.01-4.05c0.77-0.46,18.8-11.28,26.61-14.47             c1.5-0.61,3.23,0.11,3.84,1.62c0.62,1.51-0.11,3.23-1.62,3.84c-7.39,3.01-25.61,13.95-25.79,14.06             C1344.19,1365.24,1343.66,1365.38,1343.14,1365.38z"/></g><g><path d="M1856.63,1373.82c-5.82,0-12.25-1.25-16.68-5.7c-2.12-2.13-6.53-6.56,7.16-81.6c6.64-36.39,14.44-72.17,14.52-72.53        c0.34-1.59,1.9-2.6,3.51-2.25c1.59,0.35,2.6,1.92,2.25,3.51c-14.82,67.83-27.55,142.04-23.17,148.81        c6.03,6.04,19.68,3.58,24.44,2.12c1.56-0.48,3.21,0.39,3.69,1.95c0.48,1.56-0.39,3.21-1.95,3.69        C1869.92,1371.96,1863.74,1373.82,1856.63,1373.82z"/><polygon fill="#ffb59c" points="1836.22 1027.92 1815.28 1167.51 1829.96 1226.94 1864.5 1214.62 1941.49 1162.95 1943.59 1052.63"/><path d="M1835.33,1033.85l-19.29,122.13c0,0,69.8-14.92,85.31-64.81c15.48-49.92-59.39-60.34-59.39-60.34L1835.33,1033.85z"/><path fill="#ffb59c" d="M1908.05,939.29c-6.89,29.58,25.99,74.97,25.99,74.97c0.28-20.77,25.45-33.67,25.45-33.67l-1.83-50.34         c-28.51-59.68-91.4-76.67-169.21-75.21c0,0-11.86,21.67-25.08,52.68C1828.82,927.63,1908.05,939.29,1908.05,939.29z"/><path fill="#ffb59c" d="M1776.98,926.08c0,0-29.37-36.16-55.23-1.44s21.51,70.66,21.51,70.66L1776.98,926.08z"/><path fill="#f39474" d="M1776.99,936.07c0,0-23.52-28.95-44.22-1.15c-20.7,27.8,17.23,56.58,17.23,56.58L1776.99,936.07z"/><path fill="#ffb59c" d="M1762.92,1114.68c92.35,44.31,180.67-62.05,180.67-62.05s60.27,8.45,61.2-39.68         c0.65-35.28-45.3-32.36-45.3-32.36s-25.18,12.9-25.45,33.67c0,0-32.88-45.38-25.99-74.97c0,0-79.23-11.66-144.68-31.57         C1734.83,974.45,1699.9,1084.41,1762.92,1114.68z"/><path d="M1810.16,1128.54c-15.76,0-32.05-3.3-48.51-11.2c-1.47-0.7-2.09-2.47-1.38-3.93c0.7-1.47,2.46-2.09,3.93-1.38          c55.92,26.83,110.43-2.41,146.31-31.65c1.27-1.03,3.12-0.84,4.15,0.42c1.03,1.26,0.84,3.12-0.42,4.15          C1887.46,1106.76,1850.6,1128.54,1810.16,1128.54z"/><path d="M1710.45,842.91c1.22,8.83,1.36,16.92,4.83,25.26c7.12,17.17,18.28,33.1,33.99,43.43         c18.7,12.26,44.3,15.18,63.58,3.94c2.69,2.33,5.81,4.28,8.93,6.07c26.43,15.12,55.94,20.14,86.26,17.67         c-6.89,29.61,26,74.99,26,74.99c0.29-20.77,25.44-33.69,25.44-33.69s46.63-1.5,44.55,40.28         c12.3-10.85,50.74-56.42,42.05-93.79c-4.34-18.65-12.31-36.6-24.58-51.38c-2.27-2.7-5.33-5.09-7.33-7.92         c-3.53-5.01,0.45-11.22,0.7-17.21c0.49-13.22-5.18-26.55-14.23-36.11c-13-13.77-31.69-20.74-50.31-24.31         c-17.42-3.39-35.73-4.11-52.73,0.94c-17.04,5.05-32.69,16.48-40.13,32.59c4.04-18.42-6.73-37.85-22.48-48.21         c-15.75-10.4-35.38-13.13-54.24-12.51c-14.6,0.43-29.61,2.89-42.02,10.62c-12.97,8.09-22.14,21.56-26.3,36.26         C1709.41,820.53,1708.97,831.88,1710.45,842.91z"/><path d="M1803.69,1043.96c-0.13,0-0.27-0.01-0.4-0.03c-2.03-0.28-19.92-2.96-24.27-11.23c-4-7.62,12.58-45.94,19.9-62.06          c0.67-1.48,2.41-2.14,3.9-1.47c1.48,0.67,2.14,2.42,1.47,3.9c-10.87,23.96-21.62,52.54-20.02,56.93          c2.2,4.18,13.33,7.18,19.82,8.08c1.61,0.22,2.74,1.71,2.52,3.32C1806.41,1042.89,1805.14,1043.96,1803.69,1043.96z"/><ellipse cx="1768.42" cy="978.03" rx="10.98" ry="8.8" transform="rotate(-66.896 1768.356 978.026)"/><path d="M1787.38,971c-1.15,0-2.24-0.68-2.72-1.8c-6.15-14.53-19.38-12.04-19.94-11.93c-1.61,0.32-3.15-0.7-3.48-2.29          c-0.33-1.59,0.68-3.14,2.27-3.48c6.37-1.35,20.12,0.13,26.58,15.4c0.63,1.5-0.07,3.23-1.57,3.87          C1788.16,970.92,1787.77,971,1787.38,971z"/><ellipse cx="1835.86" cy="998.2" rx="10.98" ry="8.8" transform="rotate(-66.896 1835.793 998.2)"/><path d="M1854.82,991.17c-1.15,0-2.24-0.68-2.72-1.8c-6.15-14.53-19.38-12.04-19.94-11.93c-1.61,0.32-3.15-0.7-3.48-2.29          c-0.33-1.59,0.68-3.14,2.27-3.48c6.36-1.35,20.12,0.13,26.58,15.4c0.63,1.5-0.07,3.23-1.57,3.86          C1855.6,991.1,1855.21,991.17,1854.82,991.17z"/><path d="M1807.12,1080.34c-4.69,0-9.83-0.89-15.41-3.06c-1.52-0.59-2.27-2.3-1.68-3.82c0.59-1.52,2.3-2.27,3.82-1.68          c26.83,10.43,41.45-12.89,42.06-13.88c0.85-1.39,2.67-1.83,4.05-0.98c1.39,0.85,1.83,2.66,0.98,4.05          C1840.8,1061.2,1828.82,1080.34,1807.12,1080.34z"/><g><path fill="#f39474" d="M1942.54,1013.86c-2.43,14.93,9.71,28.75,25.77,26.89c7.39-0.86,13.83-5.34,18.31-11.34        c12.97-17.36,0.94-30.04-13.52-33.99C1959.46,991.68,1944.83,999.77,1942.54,1013.86z"/></g><g><polygon fill="#fff" points="1941.49 1162.95 1864.5 1214.62 1905.94 1247.76 1972.54 1197.59"/><path d="M1905.94,1250.71c-0.65,0-1.3-0.22-1.84-0.65l-41.44-33.14c-0.73-0.59-1.14-1.49-1.1-2.43        c0.04-0.94,0.52-1.8,1.3-2.33l76.99-51.67c1.22-0.82,2.86-0.62,3.84,0.48l31.05,34.63c0.55,0.61,0.82,1.43,0.74,2.25        c-0.08,0.82-0.5,1.57-1.16,2.07l-66.6,50.18C1907.19,1250.51,1906.57,1250.71,1905.94,1250.71z M1869.48,1214.83l36.51,29.2        l62.21-46.87l-27.2-30.33L1869.48,1214.83z"/></g><g><path fill="#fff" d="M1815.28,1167.51l49.22,47.11c-3.99,3.77-29.93,27.91-36.46,24.76c-7.06-3.42-35.49-45.03-35.49-45.03        C1795.83,1189.84,1815.28,1167.51,1815.28,1167.51z"/><path d="M1829.21,1242.55c-0.93,0-1.75-0.17-2.45-0.51c-7.4-3.59-31.83-38.96-36.65-46.02c-0.71-1.03-0.69-2.39,0.05-3.4        c3.32-4.57,22.1-26.14,22.9-27.05c0.53-0.61,1.28-0.97,2.09-1.01c0.8-0.04,1.59,0.26,2.17,0.82l49.22,47.11        c0.58,0.56,0.91,1.33,0.91,2.14c0,0.81-0.34,1.58-0.92,2.13C1848.4,1233.9,1835.87,1242.55,1829.21,1242.55z M1796.19,1194.46        c11.65,16.91,28.9,40.22,33.13,42.27c2.66,0.69,14.93-7.36,30.89-22.13l-44.74-42.82        C1811,1176.94,1800.35,1189.27,1796.19,1194.46z"/></g></g><g><path fill="#dbefa2" d="M1168.72,1391.35c0,21.73-9.21,41.42-24.07,55.62c-14.91,14.25-35.47,23.05-58.16,23.05H484.27       c-45.39,0-82.23-35.21-82.23-78.67c0-21.78,9.21-41.42,24.07-55.67c14.91-14.25,35.47-23.05,58.16-23.05h602.23       C1131.88,1312.63,1168.72,1347.84,1168.72,1391.35z"/><path d="M1086.47,1472.97H484.28c-46.98,0-85.19-36.61-85.19-81.62c0-21.85,8.88-42.37,24.99-57.8       c16.08-15.39,37.46-23.87,60.2-23.87h602.19c46.98,0,85.19,36.64,85.19,81.67c0,21.87-8.88,42.38-25,57.75       C1130.59,1464.49,1109.22,1472.97,1086.47,1472.97z M484.28,1315.58c-21.21,0-41.15,7.9-56.12,22.23       c-14.94,14.3-23.17,33.31-23.17,53.54c0,41.75,35.57,75.72,79.3,75.72h602.19c21.21,0,41.15-7.9,56.12-22.23       c14.94-14.25,23.17-33.24,23.17-53.49c0-41.78-35.57-75.77-79.3-75.77H484.28z"/><path fill="#358f6e" d="M529.26,1366.39v49.87c0,6.63-5.39,12.03-12.03,12.03h-12.89c-6.63,0-12.03-5.39-12.03-12.03v-49.87        c0-6.63,5.39-12.03,12.03-12.03h12.89C523.87,1354.36,529.26,1359.75,529.26,1366.39z"/><path fill="#358f6e" d="M597.91,1366.39v49.87c0,6.63-5.39,12.03-12.03,12.03h-12.89c-6.63,0-12.03-5.39-12.03-12.03v-49.87        c0-6.63,5.39-12.03,12.03-12.03h12.89C592.51,1354.36,597.91,1359.75,597.91,1366.39z"/><path fill="#358f6e" d="M666.55,1366.39v49.87c0,6.63-5.39,12.03-12.03,12.03h-12.89c-6.63,0-12.03-5.39-12.03-12.03v-49.87        c0-6.63,5.39-12.03,12.03-12.03h12.89C661.16,1354.36,666.55,1359.75,666.55,1366.39z"/><path fill="#358f6e" d="M735.2,1366.39v49.87c0,6.63-5.39,12.03-12.03,12.03h-12.89c-6.63,0-12.03-5.39-12.03-12.03v-49.87        c0-6.63,5.39-12.03,12.03-12.03h12.89C729.81,1354.36,735.2,1359.75,735.2,1366.39z"/><path fill="#358f6e" d="M803.85,1366.39v49.87c0,6.63-5.39,12.03-12.03,12.03h-12.89c-6.63,0-12.03-5.39-12.03-12.03v-49.87        c0-6.63,5.39-12.03,12.03-12.03h12.89C798.46,1354.36,803.85,1359.75,803.85,1366.39z"/><path fill="#fff" d="M872.5,1366.39v49.87c0,6.63-5.39,12.03-12.03,12.03h-12.89c-6.63,0-12.03-5.39-12.03-12.03v-49.87        c0-6.63,5.39-12.03,12.03-12.03h12.89C867.1,1354.36,872.5,1359.75,872.5,1366.39z"/><path fill="#fff" d="M941.15,1366.39v49.87c0,6.63-5.39,12.03-12.03,12.03h-12.89c-6.63,0-12.03-5.39-12.03-12.03v-49.87        c0-6.63,5.39-12.03,12.03-12.03h12.89C935.75,1354.36,941.15,1359.75,941.15,1366.39z"/><path fill="#fff" d="M1009.79,1366.39v49.87c0,6.63-5.39,12.03-12.03,12.03h-12.89c-6.63,0-12.03-5.39-12.03-12.03v-49.87        c0-6.63,5.39-12.03,12.03-12.03h12.89C1004.4,1354.36,1009.79,1359.75,1009.79,1366.39z"/><path fill="#fff" d="M1078.44,1366.39v49.87c0,6.63-5.39,12.03-12.03,12.03h-12.89c-6.63,0-12.03-5.39-12.03-12.03v-49.87        c0-6.63,5.39-12.03,12.03-12.03h12.89C1073.05,1354.36,1078.44,1359.75,1078.44,1366.39z"/></g><g><path fill="#f95d5d" d="M574.8,1648.4c-4.83,2.13-12.31,4.03-22.42,5.71c-9.26,1.56-16.85,2.33-22.79,2.33      c-10.03,0-15.05-4.4-15.05-13.21c0,0.7,0.41-5.79,1.23-19.47c1.07-17.77,1.6-37.56,1.6-59.35c0-2.33,0.81-4.32,2.43-5.96      c1.62-1.64,3.65-2.46,6.11-2.46c2.46,0,4.51,0.82,6.14,2.46c1.64,1.64,2.46,3.62,2.46,5.96c0,21.83-0.55,41.94-1.66,60.33      c-0.37,3.28-0.76,8.29-1.17,15.05c9.71-0.16,22.15-2.54,37.35-7.13c0.94-0.29,1.85-0.43,2.7-0.43c2.58,0,4.67,0.94,6.27,2.83      c1.43,1.68,2.15,3.56,2.15,5.65C580.15,1644.24,578.36,1646.8,574.8,1648.4z"/><path fill="#f95d5d" d="M611.66,1654.36c-7.58,0-14.09-2.6-19.53-7.8c-5.98-5.69-9.11-13.29-9.4-22.79      c-0.29-9.05,2.19-17.12,7.43-24.21c6.23-8.35,14.89-12.53,25.99-12.53c8.19,0,14.7,3.28,19.53,9.83      c4.34,5.9,6.51,13.21,6.51,21.93c0,9.5-2.54,17.61-7.62,24.33C628.89,1650.61,621.25,1654.36,611.66,1654.36z M615.35,1603.24      c-5.04-0.04-9.01,2.25-11.92,6.88c-2.46,3.89-3.69,8.44-3.69,13.64c0,4.91,1.39,8.68,4.18,11.3c2.21,2.09,4.79,3.13,7.74,3.13      c3.56,0,6.65-1.21,9.28-3.62c2.99-2.83,4.58-6.66,4.79-11.49C626.27,1609.9,622.8,1603.28,615.35,1603.24z"/><path fill="#f95d5d" d="M705.53,1654.11c-1.88,0-4.88-1.82-8.97-5.47c-3.77,1.8-7.09,3.16-9.95,4.09      c-2.87,0.92-5.3,1.38-7.31,1.38c-9.87,0-17.27-2.64-22.21-7.93c-4.94-5.28-7.4-13.19-7.4-23.71c0-9.87,3.65-18.32,10.93-25.34      c7.29-7.02,16.01-10.54,26.17-10.54c3.89,0,8.4,1.1,13.52,3.28c6.18,2.64,9.27,5.7,9.27,9.18c0,1.46-0.47,2.74-1.41,3.83      c-0.41,1.62-0.73,3.66-0.95,6.11c-0.22,2.45-0.34,5.32-0.34,8.61c0,7.74,0.55,13.32,1.66,16.73c0.12,0.36,1.06,2.47,2.82,6.33      c1.6,3.49,2.4,5.48,2.4,5.96c0,2.15-0.83,3.93-2.49,5.35C709.62,1653.4,707.7,1654.11,705.53,1654.11z M690.3,1612.64      c0-1.31,0.09-2.82,0.28-4.52c0.18-1.7,0.46-3.59,0.83-5.68c-0.82-0.41-1.55-0.71-2.18-0.89c-0.64-0.18-1.18-0.28-1.63-0.28      c-5.57,0-10.44,2.18-14.62,6.54c-4.18,4.36-6.27,9.41-6.27,15.14c0,5.49,0.98,9.61,2.95,12.38c1.96,2.77,4.91,4.15,8.85,4.15      c2.54,0,4.94-0.42,7.22-1.26c2.27-0.84,4.41-2.08,6.42-3.72C690.91,1624.77,690.3,1617.48,690.3,1612.64z"/><path fill="#f95d5d" d="M767.4,1588.99c0.53-13.97,1.17-23.61,1.91-28.94c0.69-4.83,3.36-7.25,7.98-7.25      c2.42,0,4.36,0.79,5.84,2.36c1.47,1.57,2.21,3.49,2.21,5.77c0,6-0.46,14.93-1.38,26.8c-0.92,11.87-1.38,20.8-1.38,26.8      c0,14.64,0.47,24.44,1.41,29.41c0.12,0.66,0.18,1.26,0.18,1.8c0,2.28-0.82,4.15-2.46,5.61c-1.64,1.47-3.54,2.2-5.71,2.2      c-3.03,0-5.28-1.35-6.76-4.06c-2.78,1.68-5.67,2.77-8.66,3.29c-2.99,0.51-6.08,0.77-9.27,0.77c-9.18,0-16.79-2.93-22.85-8.79      c-6.19-5.98-9.28-13.6-9.28-22.85c0-11.02,3.11-19.91,9.34-26.69c6.23-6.78,14.35-10.17,24.39-10.17c3.07,0,5.82,0.33,8.23,0.98      C763.55,1586.7,765.64,1587.68,767.4,1588.99z M766.17,1608.34c-1.35-2.58-3.11-4.51-5.28-5.77c-2.17-1.27-4.75-1.9-7.74-1.9      c-6.06,0-10.61,1.75-13.64,5.25c-3.03,3.5-4.55,8.75-4.55,15.76c0,4.42,1.64,8.21,4.92,11.37c3.28,3.15,7.09,4.73,11.43,4.73      c3.15,0,5.55-0.37,7.19-1.11c1.11-0.49,2.99-1.8,5.65-3.93c0.69-0.57,1.37-1.21,2.03-1.9      C766.09,1628.86,766.09,1621.37,766.17,1608.34z"/><path fill="#f95d5d" d="M815.56,1621.92c0,2.33,0.07,6.08,0.22,11.24c0.14,5.16,0.21,8.91,0.21,11.24c0,2.38-0.8,4.33-2.4,5.87      c-1.6,1.54-3.62,2.3-6.08,2.3c-2.46,0-4.48-0.77-6.08-2.3c-1.6-1.54-2.4-3.49-2.4-5.87c0-2.33-0.07-6.08-0.22-11.24      c-0.14-5.16-0.21-8.91-0.21-11.24c0-3.64,0.2-8.21,0.61-13.7c0.41-5.49,0.61-10.05,0.61-13.7c0-2.37,0.8-4.33,2.4-5.87      c1.6-1.54,3.63-2.3,6.08-2.3c2.46,0,4.49,0.77,6.08,2.3c1.6,1.54,2.4,3.49,2.4,5.87c0,3.65-0.21,8.21-0.62,13.7      C815.77,1613.71,815.56,1618.27,815.56,1621.92z M810.34,1576.89c-2.62,0-4.9-0.88-6.82-2.64c-1.92-1.76-2.89-3.91-2.89-6.45      c0-2.54,0.96-4.69,2.89-6.45c1.93-1.76,4.2-2.64,6.82-2.64c2.62,0,4.88,0.88,6.79,2.64c1.9,1.76,2.86,3.91,2.86,6.45      c0,2.54-0.95,4.69-2.86,6.45C815.22,1576.01,812.96,1576.89,810.34,1576.89z"/><path fill="#f95d5d" d="M880.01,1655.09c-5.04,0-7.84-2.48-8.42-7.43c-0.57-4.22-1.15-8.46-1.72-12.72      c-0.62-4.51-0.92-8.74-0.92-12.72c0-1.06,0.07-2.89,0.21-5.47s0.22-4.4,0.22-5.47c0-0.29,0.04-1.01,0.12-2.18      c0.08-1.17,0.12-2.12,0.12-2.86c0-3.4-0.82-5.1-2.46-5.1c-3.51,0-6.95,2.26-10.32,6.77c-3.37,4.51-6.02,10.23-7.92,17.15      c-0.08,1.39-0.25,3.23-0.52,5.54c-0.23,1.89-0.34,3.73-0.34,5.54c0,1.17-0.13,2.95-0.4,5.32c-0.26,2.37-0.4,4.14-0.4,5.32      c0,2.39-0.81,4.37-2.43,5.95c-1.62,1.57-3.66,2.36-6.11,2.36s-4.48-0.78-6.08-2.35c-1.6-1.56-2.4-3.53-2.4-5.91      c0-1.17-0.12-2.93-0.37-5.29c-0.25-2.36-0.37-4.12-0.37-5.29c0-4,0.29-9.57,0.86-16.7c0.57-7.13,0.86-12.7,0.86-16.7      c0-1.25-0.07-3.12-0.22-5.6c-0.14-2.48-0.21-4.33-0.21-5.54c0-2.34,0.83-4.27,2.49-5.79c1.66-1.52,3.69-2.28,6.11-2.28      c5.36,0,8.23,3.22,8.6,9.65l0.06,0.68c5.98-6.02,12.29-9.03,18.92-9.03c7.74,0,13.08,3.24,16.03,9.71      c1.97,4.34,2.95,10.83,2.95,19.47v4.36c-0.04,1.88-0.06,3.22-0.06,3.99c0,3.19,0.44,7.31,1.32,12.35      c0.88,5.04,1.32,9.13,1.32,12.29c0,2.29-0.82,4.2-2.46,5.71C884.45,1654.34,882.42,1655.09,880.01,1655.09z"/><path fill="#f95d5d" d="M954.41,1614.12c-1.72,9.62-2.74,19.78-3.07,30.47c-0.41,13.23-2.62,22.83-6.63,28.81      c-5.37,7.99-14.87,11.98-28.51,11.98c-15.93,0-23.9-3.15-23.9-9.46c0-2.25,0.72-4.08,2.15-5.47c1.43-1.39,3.32-2.09,5.65-2.09      c1.84,0,4.48,0.35,7.92,1.04c3.44,0.7,6.49,1.04,9.15,1.04c6.1,0,10.61-1.86,13.51-5.59c2.78-3.65,4.42-9.44,4.92-17.39      c-2.09,2.13-4.44,3.73-7.06,4.79c-2.62,1.06-5.49,1.6-8.6,1.6c-8.15,0-14.77-2.65-19.87-7.96s-7.65-12.09-7.65-20.37      c0-11.14,3.4-20.15,10.2-27.03c7.04-7.13,16.57-10.69,28.57-10.69c3.85,0,7.17,0.47,9.95,1.41c2.78,0.94,5.04,2.38,6.76,4.3      c5.2,0.61,7.8,3.69,7.8,9.22C955.7,1605.5,955.26,1609.28,954.41,1614.12z M930.57,1601.83c-6.92,0-12.31,2.27-16.16,6.82      c-3.44,4.14-5.16,9.5-5.16,16.1c0,4.87,0.92,8.54,2.77,11c1.84,2.46,4.61,3.69,8.29,3.69c3.36,0,6.74-1.95,10.14-5.84      c3.19-3.69,5.02-7.33,5.47-10.93c0.78-3.93,1.68-10.05,2.7-18.37c-1.39-0.82-2.77-1.43-4.12-1.84      C933.15,1602.04,931.84,1601.83,930.57,1601.83z"/><path fill="#f95d5d" d="M985.06,1657.12c-2.74,0-5.12-0.85-7.13-2.55c-2.01-1.7-3.01-3.62-3.01-5.74c0-2.17,1-4.13,3.01-5.87      c2.01-1.74,4.38-2.61,7.13-2.61c2.91,0,5.3,0.82,7.19,2.46c1.88,1.64,2.82,3.65,2.82,6.02c0,2.17-0.98,4.1-2.95,5.77      C990.16,1656.28,987.8,1657.12,985.06,1657.12z"/><path fill="#f95d5d" d="M1039.61,1657.12c-2.74,0-5.12-0.85-7.13-2.55c-2.01-1.7-3.01-3.62-3.01-5.74c0-2.17,1.01-4.13,3.01-5.87      c2.01-1.74,4.38-2.61,7.13-2.61c2.91,0,5.3,0.82,7.19,2.46c1.88,1.64,2.82,3.65,2.82,6.02c0,2.17-0.98,4.1-2.95,5.77      S1042.35,1657.12,1039.61,1657.12z"/><path fill="#f95d5d" d="M1081.76,1654.79c-2.46,0-4.75-1.31-6.88-3.93c-1.93-2.42-2.89-4.67-2.89-6.76c0-2.13,0.84-3.91,2.52-5.34      c1.68-1.43,3.58-2.15,5.71-2.15c2.46,0,4.73,1.31,6.82,3.93c1.92,2.42,2.89,4.65,2.89,6.7c0,2.09-0.83,3.87-2.49,5.34      C1085.78,1654.05,1083.89,1654.79,1081.76,1654.79z M1081.94,1632.49c-2.29,0-4.19-0.72-5.68-2.15      c-1.5-1.43-2.24-3.23-2.24-5.41c0-1.6-0.05-3.98-0.15-7.16c-0.1-3.17-0.16-5.56-0.16-7.16c0-5.65,0.05-14.13,0.16-25.43      c0.1-11.3,0.15-19.78,0.15-25.43c0-2.17,0.76-3.98,2.27-5.44c1.51-1.45,3.4-2.18,5.65-2.18s4.14,0.73,5.65,2.18      c1.51,1.45,2.27,3.27,2.27,5.44v65.18c0,2.17-0.75,3.97-2.24,5.41C1086.13,1631.77,1084.23,1632.49,1081.94,1632.49z"/></g><g><path fill="#bfa2ef" d="M1257.25,934.25c-25.26,153.59-862.33,172.23-844.55,20.29c3.42-29.2,20.81-55.97,54.47-75.26       c-9.81-14.69-15.53-32.33-15.53-51.31c0-51.09,41.43-92.52,92.55-92.52c11.75,0,22.99,2.18,33.34,6.17       c2.3-17.5,7.18-35.16,14.78-52.38c38.12-86.4,130.64-129.26,206.63-95.71c40.49,17.85,68.12,53.82,79.32,96.58       c23.25-20.62,53.84-33.12,87.34-33.12c72.77,0,131.77,59,131.77,131.77c0,14.57-2.37,28.6-6.73,41.69       c18.34-6.48,39.15-8.99,60.78-6.5C1216.01,831.38,1265.99,881.12,1257.25,934.25z"/><path fill="#726ad3" d="M1257.25,934.26c-22.97,139.79-718.49,167.81-829.83,57.15c208.26,66.73,742.73,29.96,762.84-92.29       c4.42-26.95-6.25-53.04-26.3-73.15C1222.33,837.93,1265.41,884.61,1257.25,934.26z"/><path d="M798.96,1061.77c-85.56,0-169.22-6.36-236.93-18.83c-73.57-13.54-159.7-39.95-152.24-88.84       c4.82-31.57,23.21-57.72,53.24-75.8c-9.39-15.1-14.33-32.43-14.33-50.32c0-1.63,1.32-2.95,2.95-2.95       c1.63,0,2.95,1.32,2.95,2.95c0,17.76,5.2,34.94,15.03,49.67c0.45,0.68,0.6,1.52,0.42,2.31s-0.7,1.48-1.41,1.88       c-30.44,17.43-48.28,42.04-53.02,73.14c-5.26,34.5,47.11,63.68,147.48,82.15c242,44.55,666.56,10.93,691.27-103.51       c4.19-19.4-0.46-39.22-13.44-57.33c-18.83-26.27-53.26-45.21-89.87-49.42c-20.46-2.35-41.03-0.16-59.46,6.35       c-1.07,0.38-2.25,0.11-3.05-0.68c-0.8-0.79-1.09-1.97-0.73-3.04c4.37-13.1,6.58-26.81,6.58-40.75       c0-71.03-57.79-128.82-128.82-128.82c-1.63,0-2.95-1.32-2.95-2.95s1.32-2.95,2.95-2.95c74.29,0,134.72,60.43,134.72,134.72       c0,12.64-1.74,25.09-5.18,37.11c17.82-5.4,37.26-7.08,56.62-4.85c38.79,4.47,73.92,23.85,93.98,51.85       c13.97,19.5,18.96,40.94,14.41,62.01c-16.06,74.36-176.7,104.59-271.03,115.99C928.67,1058.17,863.28,1061.77,798.96,1061.77z"/><path d="M577.53,744.58c-0.36,0-0.72-0.07-1.06-0.2c-10.28-3.96-21.14-5.97-32.28-5.97c-1.63,0-2.95-1.32-2.95-2.95       s1.32-2.95,2.95-2.95c10.62,0,21.01,1.72,30.93,5.11c2.56-16.9,7.43-33.55,14.49-49.56c0.66-1.49,2.39-2.17,3.89-1.51       c1.49,0.66,2.16,2.4,1.51,3.89c-7.35,16.64-12.24,33.99-14.56,51.58c-0.12,0.9-0.64,1.69-1.42,2.15       C578.57,744.44,578.05,744.58,577.53,744.58z"/><path d="M547.36,901.29c-0.62,0-1.25-0.2-1.78-0.6c-34.89-26.49-77.42-18.59-77.84-18.51c-1.6,0.3-3.15-0.73-3.46-2.33       c-0.31-1.6,0.73-3.15,2.33-3.46c1.84-0.36,45.48-8.53,82.54,19.6c1.3,0.98,1.55,2.83,0.57,4.13       C549.13,900.89,548.25,901.29,547.36,901.29z"/></g><g><path d="M1034.77,880.97c-0.31,0-0.62-0.05-0.92-0.15c-1.55-0.51-2.39-2.18-1.88-3.72c18.67-56.71,58.8-49.63,59.21-49.55      c1.6,0.31,2.64,1.86,2.33,3.46c-0.31,1.6-1.85,2.64-3.45,2.34c-1.48-0.27-35.52-5.97-52.5,45.6      C1037.17,880.18,1036.01,880.97,1034.77,880.97z"/></g><g><path fill="#ffce33" d="M902.24,1119.34l-82.77,100.56c-8.09,9.83-23.14,9.83-31.24,0l-82.77-100.56      c-10.86-13.2-1.47-33.08,15.62-33.08h42.15V908.41c0-11.17,9.06-20.23,20.23-20.23h49.94c11.17,0,20.23,9.06,20.23,20.23v177.85      h33C903.71,1086.26,913.1,1106.14,902.24,1119.34z"/></g><g><path d="M803.85,1230.23c-6.95,0-13.48-3.08-17.9-8.45l-82.77-100.56c-1.03-1.26-0.85-3.12,0.4-4.15      c1.26-1.04,3.12-0.85,4.15,0.4l82.77,100.56c3.29,4,8.16,6.3,13.34,6.3s10.05-2.3,13.34-6.3l82.77-100.56      c4.29-5.22,5.17-12.25,2.28-18.36c-2.88-6.11-8.87-9.9-15.62-9.9h-33c-1.63,0-2.95-1.32-2.95-2.95V908.41      c0-1.63,1.32-2.95,2.95-2.95s2.95,1.32,2.95,2.95v174.9h30.05c9.06,0,17.09,5.09,20.96,13.28c3.87,8.19,2.7,17.63-3.06,24.62      l-82.77,100.56C817.33,1227.15,810.8,1230.23,803.85,1230.23z"/></g><g><path d="M763.23,1089.21h-42.15c-1.63,0-2.95-1.32-2.95-2.95c0-1.63,1.32-2.95,2.95-2.95h39.2v-174.9      c0-1.63,1.32-2.95,2.95-2.95c1.63,0,2.95,1.32,2.95,2.95v177.85C766.17,1087.89,764.86,1089.21,763.23,1089.21z"/></g><g><path fill="#ff9c9c" d="M1393.87,863.41c0,0,34.39-81.08,57.03-134.87c-49.2-51.81-67.03-129.33-39.35-200.32       c38.2-97.96,148.57-146.42,246.52-108.22c97.97,38.2,146.42,148.57,108.22,246.54c-38.19,97.95-148.57,146.4-246.53,108.21       c-6.61-2.58-12.98-5.48-19.13-8.68L1393.87,863.41z"/><path d="M1396.58,864.56l-5.43-2.3c0,0,33.64-79.32,56.29-133.1c-50.31-54.06-65.49-133.13-38.64-202.01       c38.72-99.32,151.02-148.63,250.34-109.9c1.52,0.59,2.27,2.3,1.68,3.82c-0.59,1.52-2.31,2.27-3.82,1.68       c-96.29-37.54-205.16,10.26-242.71,106.55c-26.26,67.36-11.06,144.77,38.74,197.22c0.81,0.85,1.03,2.09,0.58,3.17       C1430.97,783.48,1396.58,864.56,1396.58,864.56z"/></g><g><path fill="#fff" d="M1586.07,548.38L1586.07,548.38c-7.37,0.36-13.64-5.33-13.99-12.71l-1.73-35.81      c-0.36-7.37,5.33-13.64,12.71-13.99l0,0c7.37-0.36,13.64,5.33,13.99,12.71l1.73,35.81      C1599.13,541.76,1593.44,548.02,1586.07,548.38z"/><path fill="#ed3b3b" d="M1586.07,548.38L1586.07,548.38c-7.37,0.36-13.64-5.33-13.99-12.71l-2.61-54.1      c-0.36-7.37,5.33-13.64,12.71-13.99l0,0c7.37-0.36,13.64,5.33,13.99,12.71l2.61,54.1      C1599.13,541.76,1593.44,548.02,1586.07,548.38z"/><path fill="#fff" d="M1547.43,566.61L1547.43,566.61c-4.96,5.47-13.42,5.87-18.88,0.91l-26.55-24.1      c-5.47-4.96-5.87-13.42-0.91-18.88h0c4.96-5.47,13.42-5.87,18.88-0.91l26.55,24.1C1551.99,552.69,1552.4,561.15,1547.43,566.61z      "/><path fill="#fff" d="M1533.01,606.82L1533.01,606.82c0.36,7.37-5.33,13.64-12.71,13.99l-35.81,1.73      c-7.37,0.36-13.64-5.33-13.99-12.71v0c-0.36-7.37,5.33-13.64,12.71-13.99l35.81-1.73      C1526.39,593.76,1532.65,599.45,1533.01,606.82z"/><path fill="#fff" d="M1551.24,645.46L1551.24,645.46c5.47,4.96,5.87,13.42,0.91,18.88l-24.1,26.55      c-4.96,5.47-13.42,5.87-18.88,0.91v0c-5.47-4.96-5.87-13.42-0.91-18.88l24.1-26.55C1537.32,640.9,1545.77,640.5,1551.24,645.46z      "/><path fill="#fff" d="M1591.45,659.88L1591.45,659.88c7.37-0.36,13.64,5.33,13.99,12.71l1.73,35.81      c0.36,7.37-5.33,13.64-12.71,13.99l0,0c-7.37,0.36-13.64-5.33-13.99-12.71l-1.73-35.81      C1578.39,666.51,1584.08,660.24,1591.45,659.88z"/><path fill="#fff" d="M1630.09,641.65L1630.09,641.65c4.96-5.47,13.42-5.87,18.88-0.91l26.55,24.1      c5.47,4.96,5.87,13.42,0.91,18.88h0c-4.96,5.47-13.42,5.87-18.88,0.91l-26.55-24.1      C1625.53,655.57,1625.12,647.12,1630.09,641.65z"/><path fill="#fff" d="M1644.51,601.44L1644.51,601.44c-0.36-7.37,5.33-13.64,12.71-13.99l35.81-1.73      c7.37-0.36,13.64,5.33,13.99,12.71l0,0c0.36,7.37-5.33,13.64-12.71,13.99l-35.81,1.73      C1651.13,614.5,1644.87,608.81,1644.51,601.44z"/><path fill="#fff" d="M1626.28,562.81L1626.28,562.81c-5.47-4.96-5.87-13.42-0.91-18.88l24.1-26.55       c4.96-5.47,13.42-5.87,18.88-0.91v0c5.47,4.96,5.87,13.42,0.91,18.88l-24.1,26.55C1640.2,567.36,1631.75,567.77,1626.28,562.81       z"/></g></svg>