<svg xmlns="http://www.w3.org/2000/svg" xmlns:xlink="http://www.w3.org/1999/xlink" fill="none" version="1.1" width="54" height="53" viewBox="0 0 54 53"><g><g><rect x="0" y="0" width="54" height="53" rx="10" fill="#FFFFFF" fill-opacity="1"/><rect x="0.5" y="0.5" width="53" height="52" rx="9.5" fill-opacity="0" stroke-opacity="1" stroke="#D4E1EB" fill="none" stroke-width="1"/></g><g><g><g><g><ellipse cx="29.672189712524414" cy="29.477807998657227" rx="18.716135025024414" ry="18.724390029907227" fill="#5F259F" fill-opacity="1"/></g><g><path d="M37.831087499999995,24.24880748641968C37.831087499999995,23.513587486419677,37.2212875,22.883087486419676,36.5101875,22.883087486419676C36.5101875,22.883087486419676,34.0712875,22.883087486419676,34.0712875,22.883087486419676C34.0712875,22.883087486419676,28.4820475,16.263915486419677,28.4820475,16.263915486419677C27.9740675,15.633407186419678,27.1610675,15.423436486419678,26.3481675,15.633407186419678C26.3481675,15.633407186419678,24.4173675,16.263915486419677,24.4173675,16.263915486419677C24.112447500000002,16.369191486419677,24.0106275,16.78914748641968,24.2142575,16.999137486419677C24.2142575,16.999137486419677,30.3116375,22.988347486419677,30.3116375,22.988347486419677C30.3116375,22.988347486419677,21.0627075,22.988347486419677,21.0627075,22.988347486419677C20.7577915,22.988347486419677,20.5546875,23.19833748641968,20.5546875,23.513587486419677C20.5546875,23.513587486419677,20.5546875,24.56404748641968,20.5546875,24.56404748641968C20.5546875,25.29926748641968,21.1645325,25.929777486419678,21.8756575,25.929777486419678C21.8756575,25.929777486419678,23.2984375,25.929777486419678,23.2984375,25.929777486419678C23.2984375,25.929777486419678,23.2984375,30.973277486419676,23.2984375,30.973277486419676C23.2984375,34.75567748641968,25.2292375,36.962377486419676,28.4815975,36.962377486419676C29.4975775,36.962377486419676,30.3110275,36.85717748641967,31.3271875,36.43717748641968C31.3271875,36.43717748641968,31.3271875,39.79967748641968,31.3271875,39.79967748641968C31.3271875,40.74557748641968,32.038287499999996,41.48077748641968,32.9529875,41.48077748641968C32.9529875,41.48077748641968,34.3756875,41.48077748641968,34.3756875,41.48077748641968C34.6806875,41.48077748641968,34.9855875,41.16537748641968,34.9855875,40.85017748641968C34.9855875,40.85017748641968,34.9855875,25.82507748641968,34.9855875,25.82507748641968C34.9855875,25.82507748641968,37.3230875,25.82507748641968,37.3230875,25.82507748641968C37.6279875,25.82507748641968,37.831087499999995,25.61507748641968,37.831087499999995,25.299817486419677C37.831087499999995,25.299817486419677,37.831087499999995,24.24880748641968,37.831087499999995,24.24880748641968C37.831087499999995,24.24880748641968,37.831087499999995,24.24880748641968,37.831087499999995,24.24880748641968ZM31.3271875,33.28467748641968C30.717287499999998,33.59987748641968,29.9042975,33.70517748641968,29.2944375,33.70517748641968C27.6686075,33.70517748641968,26.855607499999998,32.86467748641968,26.855607499999998,30.973277486419676C26.855607499999998,30.973277486419676,26.855607499999998,25.929777486419678,26.855607499999998,25.929777486419678C26.855607499999998,25.929777486419678,31.3271875,25.929777486419678,31.3271875,25.929777486419678C31.3271875,25.929777486419678,31.3271875,33.28467748641968,31.3271875,33.28467748641968C31.3271875,33.28467748641968,31.3271875,33.28467748641968,31.3271875,33.28467748641968Z" fill="#FFFFFF" fill-opacity="1"/></g></g></g></g></g></svg>