<svg  width="28" height="28" viewBox="0 0 28 28" fill="none" xmlns="http://www.w3.org/2000/svg" >
<path fill-rule="evenodd" clip-rule="evenodd" d="M13.9993 14C10.8959 14 8.37337 11.4884 8.37337 8.39998C8.37337 5.31158 10.8959 2.79998 13.9993 2.79998C17.1028 2.79998 19.6253 5.31158 19.6253 8.39998C19.6253 11.4884 17.1028 14 13.9993 14ZM19.2851 14.9421C20.4417 14.0211 21.3337 12.8099 21.8702 11.4321C22.4068 10.0542 22.5687 8.55871 22.3395 7.0979C21.7838 3.4257 18.7154 0.487168 15.01 0.0587676C9.89779 -0.533432 5.56109 3.42858 5.56109 8.39998C5.56109 11.046 6.79294 13.4035 8.71352 14.9421C3.99327 16.7075 0.546861 20.853 0.00652266 26.4474C-0.0123696 26.6436 0.0098879 26.8416 0.0718624 27.0288C0.133837 27.2159 0.23417 27.388 0.366447 27.5341C0.498723 27.6802 0.66003 27.797 0.840059 27.8773C1.02009 27.9575 1.21488 27.9993 1.41197 28C1.75744 28.0028 2.09149 27.8765 2.34863 27.6457C2.60577 27.415 2.76747 27.0964 2.802 26.7526C3.36614 20.5044 8.17179 16.8 13.9993 16.8C19.8268 16.8 24.6325 20.5044 25.1966 26.7526C25.2312 27.0964 25.3929 27.415 25.65 27.6457C25.9071 27.8765 26.2412 28.0028 26.5867 28C27.421 28 28.0705 27.2748 27.9907 26.4474C27.4518 20.853 24.0054 16.7075 19.2837 14.9421" fill="white"/>
</svg>
