<svg width="28" height="28" viewBox="0 0 28 28" fill="none" xmlns="http://www.w3.org/2000/svg">
<path d="M26.8333 11.2747H23.3948C22.7517 11.2747 22.2282 11.8047 22.2282 12.4559V26.8187C22.2282 27.47 22.7517 28 23.3948 28H26.8333C27.4765 28 28 27.47 28 26.8187V12.4559C28 11.8047 27.4765 11.2747 26.8333 11.2747ZM26.8328 26.8187H23.3948V12.4559H26.8333L26.8328 26.8187ZM26.8333 27.4094L26.8328 26.8187H26.8339L26.8333 27.4094ZM16.1756 14.5987C15.5324 14.5987 15.0089 15.1288 15.0089 15.78V26.8187C15.0089 27.47 15.5324 28 16.1756 28H19.614C20.2571 28 20.7807 27.47 20.7807 26.8187V15.78C20.7807 15.1288 20.2571 14.5987 19.614 14.5987H16.1756ZM16.1756 26.8187V15.78H19.614L19.6146 26.8187H16.1756ZM8.95684 28H12.3953C13.0384 28 13.562 27.47 13.562 26.8187V20.2115C13.562 19.5603 13.0384 19.0302 12.3953 19.0302H8.95684C8.31366 19.0302 7.79018 19.5603 7.79018 20.2115V26.8187C7.79018 27.47 8.31366 28 8.95684 28ZM12.3959 26.8187L12.3953 27.4094V26.8187H12.3959ZM8.95684 20.2115H12.3953V26.8187H8.95684V20.2115ZM5.17598 23.4623H1.73753C1.09441 23.4623 0.570863 23.9924 0.570863 24.6436V26.8187C0.570863 27.47 1.09441 28 1.73753 28H5.17598C5.81916 28 6.34264 27.47 6.34264 26.8187V24.6436C6.34264 23.9924 5.81916 23.4623 5.17598 23.4623ZM1.73753 26.8187V24.6436H5.17598L5.17656 26.8187H1.73753ZM26.7017 0H12.6522C12.1526 0 11.7065 0.282621 11.4884 0.737709C11.2708 1.19221 11.3266 1.72172 11.6354 2.11798L13.51 4.53482L13.0544 4.65011C12.4779 4.79606 12.0752 5.31865 12.0752 5.92081V8.21072C12.0752 9.11293 12.9511 9.73475 13.7801 9.45255L16.1805 8.63634L16.7742 9.44906C16.9833 9.73576 17.304 9.92553 17.6538 9.96935C17.9883 10.0135 18.3527 9.91549 18.6325 9.68384L27.5203 2.32334C27.9493 1.9686 28.1059 1.39816 27.9197 0.869777C27.7339 0.341449 27.2554 0 26.7017 0ZM26.7821 1.4085L17.8937 8.76959C17.8595 8.79788 17.8236 8.80018 17.7979 8.79729C17.7734 8.79439 17.7387 8.78288 17.7119 8.74655L16.032 6.44684C15.8406 6.18554 15.4755 6.12848 15.2162 6.32339C14.957 6.51724 14.9024 6.88692 15.0944 7.1494L15.4512 7.63792L13.4087 8.3324C13.3305 8.35968 13.2418 8.30286 13.2418 8.21072V5.92081C13.2418 5.86139 13.2811 5.81007 13.3375 5.79566L14.6534 5.46259C14.6688 5.45911 14.6836 5.45598 14.6989 5.45114L19.0808 4.34209C19.3936 4.26312 19.5838 3.9424 19.5052 3.62629C19.4272 3.30906 19.1104 3.11698 18.7983 3.1966L14.7495 4.22119L12.5525 1.38836C12.5201 1.34684 12.5155 1.30124 12.5383 1.2534C12.5611 1.2055 12.5998 1.18128 12.6522 1.18128H26.7017C26.724 1.18128 26.7912 1.18128 26.8208 1.26663C26.851 1.35144 26.7991 1.39468 26.7821 1.4085ZM11.1745 10.2549C11.4764 10.1424 11.6314 9.80268 11.5203 9.49637C11.4092 9.19012 11.0725 9.03319 10.7712 9.14624L7.48656 10.3702C7.18462 10.4827 7.02969 10.8224 7.14075 11.1287C7.25246 11.4369 7.58974 11.5905 7.88987 11.4789L11.1745 10.2549ZM0.785063 14.1257L4.06969 12.9018C4.37162 12.7893 4.52655 12.4496 4.41549 12.1433C4.30442 11.837 3.9683 11.6796 3.66637 11.7932L0.381747 13.0171C0.0798145 13.1296 -0.0751184 13.4694 0.035948 13.7756C0.147662 14.0838 0.484997 14.2374 0.785063 14.1257Z" fill="#2785F6"/>
</svg>
